<svg width="400" height="400" viewBox="0 0 400 400" fill="none" xmlns="http://www.w3.org/2000/svg">
  <rect width="400" height="400" fill="#f3f4f6"/>
  <path d="M200 150C177.909 150 160 167.909 160 190C160 212.091 177.909 230 200 230C222.091 230 240 212.091 240 190C240 167.909 222.091 150 200 150ZM200 220C183.458 220 170 206.542 170 190C170 173.458 183.458 160 200 160C216.542 160 230 173.458 230 190C230 206.542 216.542 220 200 220Z" fill="#9ca3af"/>
  <path d="M200 100C155.817 100 120 135.817 120 180V200C120 211.046 128.954 220 140 220H260C271.046 220 280 211.046 280 200V180C280 135.817 245.183 100 200 100ZM260 200H140V180C140 144.654 168.654 116 204 116C239.346 116 268 144.654 268 180V200H260Z" fill="#9ca3af"/>
</svg>
