<svg xmlns="http://www.w3.org/2000/svg" xmlns:xlink="http://www.w3.org/1999/xlink" width="500" zoomAndPan="magnify" viewBox="0 0 375 374.999991" height="500" preserveAspectRatio="xMidYMid meet" version="1.0"><metadata><ContainsAiGeneratedContent>Yes</ContainsAiGeneratedContent></metadata><defs><g/><clipPath id="6a99813fe8"><path d="M 52.488281 0 L 322.488281 0 L 322.488281 270 L 52.488281 270 Z M 52.488281 0 " clip-rule="nonzero"/></clipPath><clipPath id="dcd0477377"><rect x="0" width="273" y="0" height="66"/></clipPath></defs><g clip-path="url(#6a99813fe8)"><path fill="#7f7f7f" d="M 259.425781 248.84375 C 235.871094 248.84375 220.636719 237.609375 213.210938 222.921875 L 233.867188 210.953125 C 239.308594 219.84375 246.367188 226.363281 258.878906 226.363281 C 269.382812 226.363281 276.089844 221.105469 276.089844 213.855469 C 276.089844 202.953125 261.535156 198.679688 251.265625 194.285156 C 232.957031 186.492188 220.808594 176.699219 220.808594 156.035156 C 220.808594 137.007812 235.308594 122.515625 257.976562 122.515625 C 274.097656 122.515625 285.707031 128.132812 294.035156 142.804688 L 274.28125 155.492188 C 269.933594 147.703125 265.226562 144.625 257.972656 144.625 C 250.535156 144.625 245.820312 149.335938 245.820312 155.492188 C 245.820312 163.109375 250.53125 166.1875 261.414062 170.902344 C 284.210938 180.667969 301.464844 188.355469 301.464844 213.492188 C 301.476562 236.339844 283.539062 248.84375 259.425781 248.84375 Z M 200.996094 210.597656 C 200.996094 236.882812 184.804688 250.777344 162.328125 250.777344 C 142.023438 250.777344 129.863281 243.011719 123.878906 229.511719 L 123.527344 229.511719 L 144.167969 215.082031 C 148.152344 222.136719 151.746094 227.148438 160.4375 227.148438 C 168.78125 227.148438 173.992188 222.925781 173.992188 210.246094 L 173.992188 121.503906 L 200.996094 121.503906 Z M 52.488281 270.011719 L 322.5 270.011719 L 322.5 0 L 52.488281 0 Z M 52.488281 270.011719 " fill-opacity="1" fill-rule="evenodd"/></g><g transform="matrix(1, 0, 0, 1, 52, 271)"><g clip-path="url(#dcd0477377)"><g fill="#7f7f7f" fill-opacity="1"><g transform="translate(0.488341, 51.668674)"><g><path d="M 19.9375 -39.5625 L 24.71875 -39.5625 L 24.71875 -11.28125 C 24.71875 -7.476562 23.695312 -4.554688 21.65625 -2.515625 C 19.613281 -0.472656 16.875 0.546875 13.4375 0.546875 C 11.28125 0.546875 9.359375 0.148438 7.671875 -0.640625 C 5.984375 -1.429688 4.65625 -2.5625 3.6875 -4.03125 C 2.71875 -5.5 2.234375 -7.242188 2.234375 -9.265625 L 6.953125 -9.265625 C 6.953125 -7.597656 7.5625 -6.253906 8.78125 -5.234375 C 10.007812 -4.210938 11.5625 -3.703125 13.4375 -3.703125 C 15.507812 -3.703125 17.109375 -4.347656 18.234375 -5.640625 C 19.367188 -6.941406 19.9375 -8.820312 19.9375 -11.28125 Z M 19.9375 -39.5625 "/></g></g></g><g fill="#7f7f7f" fill-opacity="1"><g transform="translate(29.990654, 51.668674)"><g><path d="M 12.90625 0.703125 C 11.019531 0.703125 9.3125 0.34375 7.78125 -0.375 C 6.25 -1.09375 5.03125 -2.128906 4.125 -3.484375 C 3.226562 -4.847656 2.78125 -6.492188 2.78125 -8.421875 C 2.78125 -10.117188 3.113281 -11.5 3.78125 -12.5625 C 4.457031 -13.625 5.351562 -14.457031 6.46875 -15.0625 C 7.59375 -15.664062 8.832031 -16.117188 10.1875 -16.421875 C 11.539062 -16.722656 12.910156 -16.96875 14.296875 -17.15625 C 16.097656 -17.382812 17.5625 -17.554688 18.6875 -17.671875 C 19.8125 -17.796875 20.632812 -18.003906 21.15625 -18.296875 C 21.675781 -18.597656 21.9375 -19.117188 21.9375 -19.859375 L 21.9375 -20.015625 C 21.9375 -21.921875 21.414062 -23.398438 20.375 -24.453125 C 19.34375 -25.503906 17.78125 -26.03125 15.6875 -26.03125 C 13.507812 -26.03125 11.800781 -25.550781 10.5625 -24.59375 C 9.332031 -23.644531 8.460938 -22.632812 7.953125 -21.5625 L 3.625 -23.09375 C 4.40625 -24.894531 5.441406 -26.300781 6.734375 -27.3125 C 8.023438 -28.332031 9.4375 -29.039062 10.96875 -29.4375 C 12.507812 -29.84375 14.03125 -30.046875 15.53125 -30.046875 C 16.476562 -30.046875 17.570312 -29.929688 18.8125 -29.703125 C 20.0625 -29.484375 21.269531 -29.023438 22.4375 -28.328125 C 23.601562 -27.640625 24.570312 -26.59375 25.34375 -25.1875 C 26.113281 -23.78125 26.5 -21.898438 26.5 -19.546875 L 26.5 0 L 21.9375 0 L 21.9375 -4.015625 L 21.703125 -4.015625 C 21.398438 -3.367188 20.882812 -2.675781 20.15625 -1.9375 C 19.4375 -1.207031 18.476562 -0.582031 17.28125 -0.0625 C 16.082031 0.445312 14.625 0.703125 12.90625 0.703125 Z M 13.59375 -3.40625 C 15.394531 -3.40625 16.914062 -3.757812 18.15625 -4.46875 C 19.40625 -5.175781 20.347656 -6.085938 20.984375 -7.203125 C 21.617188 -8.328125 21.9375 -9.503906 21.9375 -10.734375 L 21.9375 -14.90625 C 21.75 -14.675781 21.328125 -14.46875 20.671875 -14.28125 C 20.023438 -14.09375 19.28125 -13.929688 18.4375 -13.796875 C 17.59375 -13.660156 16.773438 -13.546875 15.984375 -13.453125 C 15.191406 -13.359375 14.550781 -13.28125 14.0625 -13.21875 C 12.875 -13.0625 11.769531 -12.8125 10.75 -12.46875 C 9.726562 -12.125 8.90625 -11.613281 8.28125 -10.9375 C 7.65625 -10.257812 7.34375 -9.34375 7.34375 -8.1875 C 7.34375 -6.601562 7.929688 -5.410156 9.109375 -4.609375 C 10.285156 -3.804688 11.78125 -3.40625 13.59375 -3.40625 Z M 13.59375 -3.40625 "/></g></g></g><g fill="#7f7f7f" fill-opacity="1"><g transform="translate(59.569945, 51.668674)"><g><path d="M 28.4375 -29.671875 L 17.453125 0 L 12.828125 0 L 1.859375 -29.671875 L 6.796875 -29.671875 L 14.984375 -6.03125 L 15.296875 -6.03125 L 23.484375 -29.671875 Z M 28.4375 -29.671875 "/></g></g></g><g fill="#7f7f7f" fill-opacity="1"><g transform="translate(89.844571, 51.668674)"><g><path d="M 12.90625 0.703125 C 11.019531 0.703125 9.3125 0.34375 7.78125 -0.375 C 6.25 -1.09375 5.03125 -2.128906 4.125 -3.484375 C 3.226562 -4.847656 2.78125 -6.492188 2.78125 -8.421875 C 2.78125 -10.117188 3.113281 -11.5 3.78125 -12.5625 C 4.457031 -13.625 5.351562 -14.457031 6.46875 -15.0625 C 7.59375 -15.664062 8.832031 -16.117188 10.1875 -16.421875 C 11.539062 -16.722656 12.910156 -16.96875 14.296875 -17.15625 C 16.097656 -17.382812 17.5625 -17.554688 18.6875 -17.671875 C 19.8125 -17.796875 20.632812 -18.003906 21.15625 -18.296875 C 21.675781 -18.597656 21.9375 -19.117188 21.9375 -19.859375 L 21.9375 -20.015625 C 21.9375 -21.921875 21.414062 -23.398438 20.375 -24.453125 C 19.34375 -25.503906 17.78125 -26.03125 15.6875 -26.03125 C 13.507812 -26.03125 11.800781 -25.550781 10.5625 -24.59375 C 9.332031 -23.644531 8.460938 -22.632812 7.953125 -21.5625 L 3.625 -23.09375 C 4.40625 -24.894531 5.441406 -26.300781 6.734375 -27.3125 C 8.023438 -28.332031 9.4375 -29.039062 10.96875 -29.4375 C 12.507812 -29.84375 14.03125 -30.046875 15.53125 -30.046875 C 16.476562 -30.046875 17.570312 -29.929688 18.8125 -29.703125 C 20.0625 -29.484375 21.269531 -29.023438 22.4375 -28.328125 C 23.601562 -27.640625 24.570312 -26.59375 25.34375 -25.1875 C 26.113281 -23.78125 26.5 -21.898438 26.5 -19.546875 L 26.5 0 L 21.9375 0 L 21.9375 -4.015625 L 21.703125 -4.015625 C 21.398438 -3.367188 20.882812 -2.675781 20.15625 -1.9375 C 19.4375 -1.207031 18.476562 -0.582031 17.28125 -0.0625 C 16.082031 0.445312 14.625 0.703125 12.90625 0.703125 Z M 13.59375 -3.40625 C 15.394531 -3.40625 16.914062 -3.757812 18.15625 -4.46875 C 19.40625 -5.175781 20.347656 -6.085938 20.984375 -7.203125 C 21.617188 -8.328125 21.9375 -9.503906 21.9375 -10.734375 L 21.9375 -14.90625 C 21.75 -14.675781 21.328125 -14.46875 20.671875 -14.28125 C 20.023438 -14.09375 19.28125 -13.929688 18.4375 -13.796875 C 17.59375 -13.660156 16.773438 -13.546875 15.984375 -13.453125 C 15.191406 -13.359375 14.550781 -13.28125 14.0625 -13.21875 C 12.875 -13.0625 11.769531 -12.8125 10.75 -12.46875 C 9.726562 -12.125 8.90625 -11.613281 8.28125 -10.9375 C 7.65625 -10.257812 7.34375 -9.34375 7.34375 -8.1875 C 7.34375 -6.601562 7.929688 -5.410156 9.109375 -4.609375 C 10.285156 -3.804688 11.78125 -3.40625 13.59375 -3.40625 Z M 13.59375 -3.40625 "/></g></g></g><g fill="#7f7f7f" fill-opacity="1"><g transform="translate(120.505352, 51.668674)"><g><path d="M 26.421875 -29.671875 C 26.191406 -31.628906 25.25 -33.144531 23.59375 -34.21875 C 21.945312 -35.300781 19.925781 -35.84375 17.53125 -35.84375 C 14.90625 -35.84375 12.796875 -35.222656 11.203125 -33.984375 C 9.609375 -32.742188 8.8125 -31.175781 8.8125 -29.28125 C 8.8125 -27.863281 9.242188 -26.71875 10.109375 -25.84375 C 10.984375 -24.976562 12.015625 -24.300781 13.203125 -23.8125 C 14.390625 -23.332031 15.472656 -22.96875 16.453125 -22.71875 L 20.46875 -21.625 C 21.5 -21.363281 22.648438 -20.992188 23.921875 -20.515625 C 25.191406 -20.035156 26.40625 -19.382812 27.5625 -18.5625 C 28.726562 -17.75 29.691406 -16.703125 30.453125 -15.421875 C 31.210938 -14.148438 31.59375 -12.585938 31.59375 -10.734375 C 31.59375 -8.597656 31.035156 -6.664062 29.921875 -4.9375 C 28.804688 -3.21875 27.179688 -1.847656 25.046875 -0.828125 C 22.921875 0.191406 20.34375 0.703125 17.3125 0.703125 C 13.0625 0.703125 9.6875 -0.300781 7.1875 -2.3125 C 4.6875 -4.320312 3.320312 -6.953125 3.09375 -10.203125 L 8.03125 -10.203125 C 8.164062 -8.703125 8.671875 -7.46875 9.546875 -6.5 C 10.429688 -5.53125 11.550781 -4.804688 12.90625 -4.328125 C 14.269531 -3.859375 15.738281 -3.625 17.3125 -3.625 C 19.132812 -3.625 20.769531 -3.921875 22.21875 -4.515625 C 23.675781 -5.117188 24.832031 -5.957031 25.6875 -7.03125 C 26.539062 -8.113281 26.96875 -9.375 26.96875 -10.8125 C 26.96875 -12.125 26.597656 -13.191406 25.859375 -14.015625 C 25.128906 -14.847656 24.164062 -15.519531 22.96875 -16.03125 C 21.769531 -16.539062 20.472656 -16.992188 19.078125 -17.390625 L 14.21875 -18.78125 C 11.125 -19.664062 8.675781 -20.929688 6.875 -22.578125 C 5.070312 -24.222656 4.171875 -26.378906 4.171875 -29.046875 C 4.171875 -31.265625 4.769531 -33.195312 5.96875 -34.84375 C 7.175781 -36.5 8.800781 -37.785156 10.84375 -38.703125 C 12.882812 -39.628906 15.164062 -40.09375 17.6875 -40.09375 C 20.238281 -40.09375 22.503906 -39.640625 24.484375 -38.734375 C 26.472656 -37.828125 28.050781 -36.585938 29.21875 -35.015625 C 30.382812 -33.441406 31 -31.660156 31.0625 -29.671875 Z M 26.421875 -29.671875 "/></g></g></g><g fill="#7f7f7f" fill-opacity="1"><g transform="translate(155.182155, 51.668674)"><g><path d="M 16.21875 0.625 C 13.4375 0.625 11.039062 -0.03125 9.03125 -1.34375 C 7.03125 -2.664062 5.488281 -4.476562 4.40625 -6.78125 C 3.320312 -9.082031 2.78125 -11.710938 2.78125 -14.671875 C 2.78125 -17.691406 3.335938 -20.359375 4.453125 -22.671875 C 5.566406 -24.984375 7.125 -26.789062 9.125 -28.09375 C 11.125 -29.394531 13.460938 -30.046875 16.140625 -30.046875 C 18.234375 -30.046875 20.113281 -29.660156 21.78125 -28.890625 C 23.457031 -28.117188 24.828125 -27.035156 25.890625 -25.640625 C 26.960938 -24.253906 27.628906 -22.632812 27.890625 -20.78125 L 23.328125 -20.78125 C 22.984375 -22.132812 22.210938 -23.332031 21.015625 -24.375 C 19.828125 -25.425781 18.226562 -25.953125 16.21875 -25.953125 C 13.550781 -25.953125 11.40625 -24.9375 9.78125 -22.90625 C 8.15625 -20.882812 7.34375 -18.191406 7.34375 -14.828125 C 7.34375 -11.390625 8.144531 -8.640625 9.75 -6.578125 C 11.363281 -4.515625 13.519531 -3.484375 16.21875 -3.484375 C 18 -3.484375 19.519531 -3.9375 20.78125 -4.84375 C 22.050781 -5.757812 22.898438 -7.03125 23.328125 -8.65625 L 27.890625 -8.65625 C 27.628906 -6.90625 26.992188 -5.328125 25.984375 -3.921875 C 24.972656 -2.523438 23.640625 -1.414062 21.984375 -0.59375 C 20.335938 0.21875 18.414062 0.625 16.21875 0.625 Z M 16.21875 0.625 "/></g></g></g><g fill="#7f7f7f" fill-opacity="1"><g transform="translate(185.534013, 51.668674)"><g><path d="M 4.171875 0 L 4.171875 -29.671875 L 8.578125 -29.671875 L 8.578125 -25.1875 L 8.890625 -25.1875 C 9.410156 -26.65625 10.378906 -27.84375 11.796875 -28.75 C 13.210938 -29.664062 14.816406 -30.125 16.609375 -30.125 C 17.429688 -30.125 18.148438 -30.023438 18.765625 -29.828125 C 19.390625 -29.640625 19.929688 -29.378906 20.390625 -29.046875 L 18.84375 -25.1875 C 18.53125 -25.351562 18.15625 -25.484375 17.71875 -25.578125 C 17.289062 -25.679688 16.789062 -25.734375 16.21875 -25.734375 C 14.0625 -25.734375 12.273438 -25.070312 10.859375 -23.75 C 9.441406 -22.425781 8.734375 -20.769531 8.734375 -18.78125 L 8.734375 0 Z M 4.171875 0 "/></g></g></g><g fill="#7f7f7f" fill-opacity="1"><g transform="translate(206.386433, 51.668674)"><g><path d="M 4.171875 0 L 4.171875 -29.671875 L 8.734375 -29.671875 L 8.734375 0 Z M 6.484375 -34.609375 C 5.597656 -34.609375 4.835938 -34.910156 4.203125 -35.515625 C 3.566406 -36.117188 3.25 -36.847656 3.25 -37.703125 C 3.25 -38.554688 3.566406 -39.285156 4.203125 -39.890625 C 4.835938 -40.492188 5.597656 -40.796875 6.484375 -40.796875 C 7.378906 -40.796875 8.144531 -40.492188 8.78125 -39.890625 C 9.414062 -39.285156 9.734375 -38.554688 9.734375 -37.703125 C 9.734375 -36.847656 9.414062 -36.117188 8.78125 -35.515625 C 8.144531 -34.910156 7.378906 -34.609375 6.484375 -34.609375 Z M 6.484375 -34.609375 "/></g></g></g><g fill="#7f7f7f" fill-opacity="1"><g transform="translate(219.284042, 51.668674)"><g><path d="M 4.171875 11.125 L 4.171875 -29.671875 L 8.578125 -29.671875 L 8.578125 -24.953125 L 9.109375 -24.953125 C 9.453125 -25.472656 9.921875 -26.132812 10.515625 -26.9375 C 11.117188 -27.738281 11.984375 -28.457031 13.109375 -29.09375 C 14.234375 -29.726562 15.757812 -30.046875 17.6875 -30.046875 C 20.1875 -30.046875 22.390625 -29.421875 24.296875 -28.171875 C 26.203125 -26.929688 27.6875 -25.164062 28.75 -22.875 C 29.820312 -20.582031 30.359375 -17.875 30.359375 -14.75 C 30.359375 -11.613281 29.820312 -8.894531 28.75 -6.59375 C 27.6875 -4.289062 26.207031 -2.507812 24.3125 -1.25 C 22.425781 0 20.242188 0.625 17.765625 0.625 C 15.859375 0.625 14.332031 0.304688 13.1875 -0.328125 C 12.039062 -0.972656 11.160156 -1.703125 10.546875 -2.515625 C 9.929688 -3.335938 9.453125 -4.019531 9.109375 -4.5625 L 8.734375 -4.5625 L 8.734375 11.125 Z M 8.65625 -14.828125 C 8.65625 -11.472656 9.382812 -8.742188 10.84375 -6.640625 C 12.300781 -4.535156 14.40625 -3.484375 17.15625 -3.484375 C 19.0625 -3.484375 20.65625 -3.988281 21.9375 -5 C 23.21875 -6.007812 24.179688 -7.375 24.828125 -9.09375 C 25.472656 -10.8125 25.796875 -12.722656 25.796875 -14.828125 C 25.796875 -16.921875 25.476562 -18.804688 24.84375 -20.484375 C 24.207031 -22.160156 23.25 -23.488281 21.96875 -24.46875 C 20.6875 -25.457031 19.082031 -25.953125 17.15625 -25.953125 C 14.375 -25.953125 12.257812 -24.925781 10.8125 -22.875 C 9.375 -20.832031 8.65625 -18.148438 8.65625 -14.828125 Z M 8.65625 -14.828125 "/></g></g></g><g fill="#7f7f7f" fill-opacity="1"><g transform="translate(252.416222, 51.668674)"><g><path d="M 17.078125 -29.671875 L 17.078125 -25.796875 L 10.734375 -25.796875 L 10.734375 -8.5 C 10.734375 -7.207031 10.921875 -6.242188 11.296875 -5.609375 C 11.679688 -4.972656 12.171875 -4.546875 12.765625 -4.328125 C 13.367188 -4.117188 14.003906 -4.015625 14.671875 -4.015625 C 15.179688 -4.015625 15.59375 -4.039062 15.90625 -4.09375 C 16.226562 -4.15625 16.488281 -4.207031 16.6875 -4.25 L 17.609375 -0.15625 C 17.304688 -0.0390625 16.875 0.078125 16.3125 0.203125 C 15.757812 0.328125 15.0625 0.390625 14.21875 0.390625 C 12.925781 0.390625 11.664062 0.113281 10.4375 -0.4375 C 9.207031 -1 8.191406 -1.84375 7.390625 -2.96875 C 6.585938 -4.101562 6.1875 -5.535156 6.1875 -7.265625 L 6.1875 -25.796875 L 1.703125 -25.796875 L 1.703125 -29.671875 L 6.1875 -29.671875 L 6.1875 -36.78125 L 10.734375 -36.78125 L 10.734375 -29.671875 Z M 17.078125 -29.671875 "/></g></g></g></g></g></svg>