<svg xmlns="http://www.w3.org/2000/svg" xmlns:xlink="http://www.w3.org/1999/xlink" width="500" zoomAndPan="magnify" viewBox="0 0 375 374.999991" height="500" preserveAspectRatio="xMidYMid meet" version="1.0"><metadata><ContainsAiGeneratedContent>Yes</ContainsAiGeneratedContent></metadata><defs><g/><clipPath id="ae5ab8f9ae"><path d="M 52.648438 181 L 322.648438 181 L 322.648438 237 L 52.648438 237 Z M 52.648438 181 " clip-rule="nonzero"/></clipPath><clipPath id="9f12b43c62"><rect x="0" width="337" y="0" height="65"/></clipPath></defs><path fill="#7f7f7f" d="M 225.808594 116.757812 C 210.800781 116.757812 196.105469 111.226562 185.207031 101.589844 C 181.570312 98.273438 178.726562 95.429688 176.359375 92.898438 C 171.144531 87.527344 168.617188 85.160156 164.980469 85.160156 C 160.402344 85.160156 153.132812 88.632812 139.386719 97.957031 C 138.28125 98.746094 136.703125 98.589844 135.59375 97.796875 C 134.648438 97.007812 134.171875 95.585938 134.648438 94.320312 C 135.121094 92.898438 146.65625 59.089844 177.148438 59.089844 C 180.148438 59.089844 183.152344 59.40625 186.152344 60.039062 C 198.003906 62.40625 212.378906 71.253906 219.804688 78.207031 C 228.179688 86.265625 233.710938 91.003906 240.503906 91.003906 C 245.402344 91.003906 251.246094 88.476562 258.832031 82.789062 C 259.777344 82.15625 261.042969 82 262.148438 82.472656 C 263.253906 83.105469 263.886719 84.210938 263.886719 85.316406 C 263.886719 104.117188 248.5625 116.757812 225.808594 116.757812 Z M 164.980469 78.839844 C 171.460938 78.839844 175.410156 82.789062 180.78125 88.476562 C 183.308594 91.003906 185.996094 93.691406 189.472656 96.851562 C 199.109375 105.382812 212.378906 110.4375 225.808594 110.4375 C 238.605469 110.4375 253.300781 105.382812 256.777344 91.792969 C 250.613281 95.585938 245.402344 97.324219 240.503906 97.324219 C 230.707031 97.324219 223.28125 90.371094 215.382812 82.789062 C 208.589844 76.3125 195.160156 68.253906 184.890625 66.199219 C 182.203125 65.566406 179.675781 65.410156 177.148438 65.410156 C 160.714844 65.410156 150.445312 77.574219 145.074219 86.738281 C 154.554688 80.894531 160.242188 78.839844 164.980469 78.839844 Z M 164.980469 78.839844 " fill-opacity="1" fill-rule="evenodd"/><path fill="#7f7f7f" d="M 202.425781 161.785156 C 187.417969 161.785156 172.722656 156.253906 161.824219 146.617188 C 158.1875 143.457031 155.34375 140.457031 152.976562 137.929688 C 147.761719 132.558594 145.234375 130.1875 141.597656 130.1875 C 137.015625 130.1875 129.75 133.820312 116.003906 142.984375 C 114.898438 143.773438 113.316406 143.773438 112.371094 142.984375 C 111.265625 142.035156 110.789062 140.613281 111.265625 139.351562 C 111.738281 137.929688 123.273438 104.117188 153.921875 104.117188 C 156.765625 104.117188 159.769531 104.433594 162.769531 105.066406 C 174.621094 107.59375 188.996094 116.285156 196.421875 123.394531 C 204.796875 131.292969 210.328125 136.03125 217.121094 136.03125 C 222.019531 136.03125 227.863281 133.503906 235.449219 127.976562 C 236.394531 127.183594 237.660156 127.027344 238.765625 127.660156 C 239.871094 128.132812 240.503906 129.238281 240.503906 130.503906 C 240.503906 149.144531 225.179688 161.785156 202.425781 161.785156 Z M 141.597656 123.867188 C 148.078125 123.867188 152.027344 127.976562 157.554688 133.503906 C 159.925781 136.03125 162.613281 138.875 166.089844 141.878906 C 175.726562 150.566406 188.996094 155.464844 202.425781 155.464844 C 215.222656 155.464844 229.917969 150.410156 233.394531 136.980469 C 227.230469 140.613281 222.019531 142.351562 217.121094 142.351562 C 207.324219 142.351562 199.898438 135.402344 192 127.976562 C 185.207031 121.496094 171.933594 113.441406 161.507812 111.226562 C 158.820312 110.753906 156.292969 110.4375 153.921875 110.4375 C 137.332031 110.4375 127.0625 122.761719 121.851562 131.765625 C 131.171875 126.078125 136.859375 123.867188 141.597656 123.867188 Z M 141.597656 123.867188 " fill-opacity="1" fill-rule="evenodd"/><path fill="#7f7f7f" d="M 300.382812 187.695312 L 74.609375 187.695312 C 72.871094 187.695312 71.449219 186.273438 71.449219 184.535156 L 71.449219 52.453125 C 71.449219 41.867188 79.980469 33.179688 90.726562 33.179688 L 284.265625 33.179688 C 294.851562 33.179688 303.542969 41.867188 303.542969 52.453125 L 303.542969 184.535156 C 303.542969 186.273438 302.121094 187.695312 300.382812 187.695312 Z M 77.769531 181.375 L 297.222656 181.375 L 297.222656 52.453125 C 297.222656 45.34375 291.378906 39.5 284.265625 39.5 L 90.726562 39.5 C 83.457031 39.5 77.769531 45.34375 77.769531 52.453125 Z M 77.769531 181.375 " fill-opacity="1" fill-rule="evenodd"/><g clip-path="url(#ae5ab8f9ae)"><path fill="#7f7f7f" d="M 294.695312 236.515625 L 80.140625 236.515625 C 64.972656 236.515625 52.648438 224.035156 52.648438 208.867188 L 52.648438 184.535156 C 52.648438 182.796875 54.070312 181.375 55.808594 181.375 L 319.183594 181.375 C 320.921875 181.375 322.34375 182.796875 322.34375 184.535156 L 322.34375 208.867188 C 322.34375 224.035156 309.863281 236.515625 294.695312 236.515625 Z M 58.96875 187.695312 L 58.96875 208.867188 C 58.96875 220.558594 68.449219 230.195312 80.140625 230.195312 L 294.695312 230.195312 C 306.386719 230.195312 316.023438 220.558594 316.023438 208.867188 L 316.023438 187.695312 Z M 58.96875 187.695312 " fill-opacity="1" fill-rule="evenodd"/></g><path fill="#7f7f7f" d="M 215.222656 213.132812 L 159.609375 213.132812 C 158.664062 213.132812 157.714844 212.660156 157.082031 211.871094 L 138.914062 186.273438 C 138.28125 185.328125 138.125 184.0625 138.753906 182.957031 C 139.230469 182.007812 140.335938 181.375 141.441406 181.375 L 233.394531 181.375 C 234.65625 181.375 235.761719 182.007812 236.238281 182.957031 C 236.710938 184.0625 236.710938 185.328125 236.078125 186.273438 L 217.910156 211.871094 C 217.277344 212.660156 216.332031 213.132812 215.222656 213.132812 Z M 161.347656 206.8125 L 213.644531 206.8125 L 227.390625 187.695312 L 147.601562 187.695312 Z M 161.347656 206.8125 " fill-opacity="1" fill-rule="evenodd"/><path fill="#7f7f7f" d="M 110.789062 212.027344 L 78.402344 212.027344 C 76.664062 212.027344 75.242188 210.605469 75.242188 208.867188 C 75.242188 207.128906 76.664062 205.707031 78.402344 205.707031 L 110.789062 205.707031 C 112.527344 205.707031 113.949219 207.128906 113.949219 208.867188 C 113.949219 210.605469 112.527344 212.027344 110.789062 212.027344 Z M 110.789062 212.027344 " fill-opacity="1" fill-rule="evenodd"/><path fill="#7f7f7f" d="M 296.589844 212.027344 L 264.203125 212.027344 C 262.464844 212.027344 261.042969 210.605469 261.042969 208.867188 C 261.042969 207.128906 262.464844 205.707031 264.203125 205.707031 L 296.589844 205.707031 C 298.328125 205.707031 299.75 207.128906 299.75 208.867188 C 299.75 210.605469 298.328125 212.027344 296.589844 212.027344 Z M 296.589844 212.027344 " fill-opacity="1" fill-rule="evenodd"/><g transform="matrix(1, 0, 0, 1, 19, 288)"><g clip-path="url(#9f12b43c62)"><g fill="#7f7f7f" fill-opacity="1"><g transform="translate(1.38057, 50.592228)"><g><path d="M 2.625 -35.296875 L 2.625 -39.546875 L 32.28125 -39.546875 L 32.28125 -35.296875 L 19.84375 -35.296875 L 19.84375 0 L 15.0625 0 L 15.0625 -35.296875 Z M 2.625 -35.296875 "/></g></g></g><g fill="#7f7f7f" fill-opacity="1"><g transform="translate(32.275645, 50.592228)"><g><path d="M 12.90625 0.6875 C 11.019531 0.6875 9.3125 0.332031 7.78125 -0.375 C 6.25 -1.09375 5.03125 -2.128906 4.125 -3.484375 C 3.226562 -4.835938 2.78125 -6.484375 2.78125 -8.421875 C 2.78125 -10.117188 3.113281 -11.5 3.78125 -12.5625 C 4.445312 -13.625 5.34375 -14.457031 6.46875 -15.0625 C 7.59375 -15.664062 8.832031 -16.117188 10.1875 -16.421875 C 11.539062 -16.722656 12.90625 -16.960938 14.28125 -17.140625 C 16.082031 -17.378906 17.546875 -17.554688 18.671875 -17.671875 C 19.804688 -17.796875 20.632812 -18.003906 21.15625 -18.296875 C 21.675781 -18.597656 21.9375 -19.113281 21.9375 -19.84375 L 21.9375 -20 C 21.9375 -21.90625 21.414062 -23.382812 20.375 -24.4375 C 19.34375 -25.5 17.773438 -26.03125 15.671875 -26.03125 C 13.503906 -26.03125 11.800781 -25.550781 10.5625 -24.59375 C 9.320312 -23.644531 8.453125 -22.628906 7.953125 -21.546875 L 3.625 -23.09375 C 4.394531 -24.894531 5.425781 -26.300781 6.71875 -27.3125 C 8.019531 -28.320312 9.4375 -29.03125 10.96875 -29.4375 C 12.507812 -29.84375 14.03125 -30.046875 15.53125 -30.046875 C 16.476562 -30.046875 17.570312 -29.929688 18.8125 -29.703125 C 20.0625 -29.484375 21.265625 -29.023438 22.421875 -28.328125 C 23.585938 -27.628906 24.554688 -26.578125 25.328125 -25.171875 C 26.109375 -23.773438 26.5 -21.898438 26.5 -19.546875 L 26.5 0 L 21.9375 0 L 21.9375 -4.015625 L 21.703125 -4.015625 C 21.390625 -3.367188 20.875 -2.675781 20.15625 -1.9375 C 19.4375 -1.207031 18.476562 -0.585938 17.28125 -0.078125 C 16.082031 0.429688 14.625 0.6875 12.90625 0.6875 Z M 13.59375 -3.390625 C 15.394531 -3.390625 16.914062 -3.742188 18.15625 -4.453125 C 19.40625 -5.160156 20.347656 -6.070312 20.984375 -7.1875 C 21.617188 -8.3125 21.9375 -9.492188 21.9375 -10.734375 L 21.9375 -14.90625 C 21.738281 -14.675781 21.316406 -14.46875 20.671875 -14.28125 C 20.023438 -14.09375 19.28125 -13.929688 18.4375 -13.796875 C 17.59375 -13.660156 16.773438 -13.539062 15.984375 -13.4375 C 15.191406 -13.34375 14.550781 -13.265625 14.0625 -13.203125 C 12.875 -13.046875 11.765625 -12.796875 10.734375 -12.453125 C 9.710938 -12.117188 8.890625 -11.613281 8.265625 -10.9375 C 7.648438 -10.257812 7.34375 -9.34375 7.34375 -8.1875 C 7.34375 -6.601562 7.929688 -5.40625 9.109375 -4.59375 C 10.285156 -3.789062 11.78125 -3.390625 13.59375 -3.390625 Z M 13.59375 -3.390625 "/></g></g></g><g fill="#7f7f7f" fill-opacity="1"><g transform="translate(62.939309, 50.592228)"><g><path d="M 4.171875 0 L 4.171875 -29.65625 L 8.734375 -29.65625 L 8.734375 0 Z M 6.484375 -34.609375 C 5.597656 -34.609375 4.835938 -34.910156 4.203125 -35.515625 C 3.566406 -36.117188 3.25 -36.84375 3.25 -37.6875 C 3.25 -38.539062 3.566406 -39.269531 4.203125 -39.875 C 4.835938 -40.476562 5.597656 -40.78125 6.484375 -40.78125 C 7.367188 -40.78125 8.128906 -40.476562 8.765625 -39.875 C 9.410156 -39.269531 9.734375 -38.539062 9.734375 -37.6875 C 9.734375 -36.84375 9.410156 -36.117188 8.765625 -35.515625 C 8.128906 -34.910156 7.367188 -34.609375 6.484375 -34.609375 Z M 6.484375 -34.609375 "/></g></g></g><g fill="#7f7f7f" fill-opacity="1"><g transform="translate(75.838136, 50.592228)"><g><path d="M 8.734375 -39.546875 L 8.734375 0 L 4.171875 0 L 4.171875 -39.546875 Z M 8.734375 -39.546875 "/></g></g></g><g fill="#7f7f7f" fill-opacity="1"><g transform="translate(88.736964, 50.592228)"><g><path d="M 10.890625 0 L 1.859375 -29.65625 L 6.640625 -29.65625 L 13.046875 -6.953125 L 13.359375 -6.953125 L 19.703125 -29.65625 L 24.5625 -29.65625 L 30.8125 -7.03125 L 31.125 -7.03125 L 37.53125 -29.65625 L 42.328125 -29.65625 L 33.296875 0 L 28.8125 0 L 22.328125 -22.78125 L 21.859375 -22.78125 L 15.375 0 Z M 10.890625 0 "/></g></g></g><g fill="#7f7f7f" fill-opacity="1"><g transform="translate(132.917363, 50.592228)"><g><path d="M 4.171875 0 L 4.171875 -29.65625 L 8.734375 -29.65625 L 8.734375 0 Z M 6.484375 -34.609375 C 5.597656 -34.609375 4.835938 -34.910156 4.203125 -35.515625 C 3.566406 -36.117188 3.25 -36.84375 3.25 -37.6875 C 3.25 -38.539062 3.566406 -39.269531 4.203125 -39.875 C 4.835938 -40.476562 5.597656 -40.78125 6.484375 -40.78125 C 7.367188 -40.78125 8.128906 -40.476562 8.765625 -39.875 C 9.410156 -39.269531 9.734375 -38.539062 9.734375 -37.6875 C 9.734375 -36.84375 9.410156 -36.117188 8.765625 -35.515625 C 8.128906 -34.910156 7.367188 -34.609375 6.484375 -34.609375 Z M 6.484375 -34.609375 "/></g></g></g><g fill="#7f7f7f" fill-opacity="1"><g transform="translate(145.816191, 50.592228)"><g><path d="M 8.734375 -17.84375 L 8.734375 0 L 4.171875 0 L 4.171875 -29.65625 L 8.578125 -29.65625 L 8.578125 -25.03125 L 8.953125 -25.03125 C 9.648438 -26.53125 10.707031 -27.738281 12.125 -28.65625 C 13.539062 -29.582031 15.367188 -30.046875 17.609375 -30.046875 C 20.609375 -30.046875 23.03125 -29.125 24.875 -27.28125 C 26.726562 -25.4375 27.65625 -22.625 27.65625 -18.84375 L 27.65625 0 L 23.09375 0 L 23.09375 -18.53125 C 23.09375 -20.863281 22.488281 -22.679688 21.28125 -23.984375 C 20.070312 -25.296875 18.410156 -25.953125 16.296875 -25.953125 C 14.117188 -25.953125 12.3125 -25.242188 10.875 -23.828125 C 9.445312 -22.421875 8.734375 -20.425781 8.734375 -17.84375 Z M 8.734375 -17.84375 "/></g></g></g><g fill="#7f7f7f" fill-opacity="1"><g transform="translate(177.638435, 50.592228)"><g><path d="M 15.375 0.625 C 12.894531 0.625 10.707031 0 8.8125 -1.25 C 6.925781 -2.507812 5.445312 -4.289062 4.375 -6.59375 C 3.3125 -8.894531 2.78125 -11.613281 2.78125 -14.75 C 2.78125 -17.863281 3.3125 -20.566406 4.375 -22.859375 C 5.445312 -25.148438 6.9375 -26.921875 8.84375 -28.171875 C 10.75 -29.421875 12.953125 -30.046875 15.453125 -30.046875 C 17.378906 -30.046875 18.90625 -29.726562 20.03125 -29.09375 C 21.15625 -28.457031 22.015625 -27.734375 22.609375 -26.921875 C 23.210938 -26.117188 23.679688 -25.460938 24.015625 -24.953125 L 24.40625 -24.953125 L 24.40625 -39.546875 L 28.96875 -39.546875 L 28.96875 0 L 24.5625 0 L 24.5625 -4.5625 L 24.015625 -4.5625 C 23.679688 -4.019531 23.207031 -3.335938 22.59375 -2.515625 C 21.976562 -1.703125 21.097656 -0.972656 19.953125 -0.328125 C 18.804688 0.304688 17.28125 0.625 15.375 0.625 Z M 15.984375 -3.46875 C 18.722656 -3.46875 20.820312 -4.519531 22.28125 -6.625 C 23.75 -8.738281 24.484375 -11.472656 24.484375 -14.828125 C 24.484375 -18.148438 23.757812 -20.832031 22.3125 -22.875 C 20.875 -24.925781 18.765625 -25.953125 15.984375 -25.953125 C 14.054688 -25.953125 12.453125 -25.457031 11.171875 -24.46875 C 9.890625 -23.488281 8.929688 -22.15625 8.296875 -20.46875 C 7.660156 -18.789062 7.34375 -16.910156 7.34375 -14.828125 C 7.34375 -12.710938 7.664062 -10.796875 8.3125 -9.078125 C 8.957031 -7.359375 9.921875 -5.992188 11.203125 -4.984375 C 12.484375 -3.972656 14.078125 -3.46875 15.984375 -3.46875 Z M 15.984375 -3.46875 "/></g></g></g><g fill="#7f7f7f" fill-opacity="1"><g transform="translate(211.391637, 50.592228)"><g/></g></g><g fill="#7f7f7f" fill-opacity="1"><g transform="translate(226.684861, 50.592228)"><g><path d="M 36.609375 -27.1875 L 31.828125 -27.1875 C 31.441406 -29.007812 30.695312 -30.546875 29.59375 -31.796875 C 28.5 -33.046875 27.179688 -33.992188 25.640625 -34.640625 C 24.097656 -35.285156 22.453125 -35.609375 20.703125 -35.609375 C 18.304688 -35.609375 16.140625 -35 14.203125 -33.78125 C 12.265625 -32.570312 10.722656 -30.789062 9.578125 -28.4375 C 8.441406 -26.082031 7.875 -23.191406 7.875 -19.765625 C 7.875 -16.347656 8.441406 -13.457031 9.578125 -11.09375 C 10.722656 -8.738281 12.265625 -6.957031 14.203125 -5.75 C 16.140625 -4.539062 18.304688 -3.9375 20.703125 -3.9375 C 22.453125 -3.9375 24.097656 -4.257812 25.640625 -4.90625 C 27.179688 -5.550781 28.5 -6.492188 29.59375 -7.734375 C 30.695312 -8.984375 31.441406 -10.523438 31.828125 -12.359375 L 36.609375 -12.359375 C 36.117188 -9.648438 35.117188 -7.332031 33.609375 -5.40625 C 32.109375 -3.488281 30.242188 -2.015625 28.015625 -0.984375 C 25.785156 0.0351562 23.347656 0.546875 20.703125 0.546875 C 17.328125 0.546875 14.328125 -0.273438 11.703125 -1.921875 C 9.078125 -3.578125 7.007812 -5.921875 5.5 -8.953125 C 4 -11.992188 3.25 -15.597656 3.25 -19.765625 C 3.25 -23.941406 4 -27.546875 5.5 -30.578125 C 7.007812 -33.617188 9.078125 -35.960938 11.703125 -37.609375 C 14.328125 -39.265625 17.328125 -40.09375 20.703125 -40.09375 C 23.347656 -40.09375 25.785156 -39.578125 28.015625 -38.546875 C 30.242188 -37.523438 32.109375 -36.050781 33.609375 -34.125 C 35.117188 -32.207031 36.117188 -29.894531 36.609375 -27.1875 Z M 36.609375 -27.1875 "/></g></g></g><g fill="#7f7f7f" fill-opacity="1"><g transform="translate(266.230953, 50.592228)"><g><path d="M 26.421875 -29.65625 C 26.179688 -31.613281 25.238281 -33.132812 23.59375 -34.21875 C 21.945312 -35.300781 19.925781 -35.84375 17.53125 -35.84375 C 14.90625 -35.84375 12.796875 -35.21875 11.203125 -33.96875 C 9.609375 -32.726562 8.8125 -31.160156 8.8125 -29.265625 C 8.8125 -27.859375 9.242188 -26.71875 10.109375 -25.84375 C 10.972656 -24.976562 12 -24.300781 13.1875 -23.8125 C 14.382812 -23.332031 15.472656 -22.960938 16.453125 -22.703125 L 20.46875 -21.625 C 21.5 -21.351562 22.644531 -20.976562 23.90625 -20.5 C 25.175781 -20.03125 26.394531 -19.382812 27.5625 -18.5625 C 28.726562 -17.75 29.691406 -16.703125 30.453125 -15.421875 C 31.210938 -14.148438 31.59375 -12.585938 31.59375 -10.734375 C 31.59375 -8.597656 31.035156 -6.664062 29.921875 -4.9375 C 28.804688 -3.21875 27.179688 -1.847656 25.046875 -0.828125 C 22.921875 0.179688 20.335938 0.6875 17.296875 0.6875 C 13.046875 0.6875 9.671875 -0.3125 7.171875 -2.3125 C 4.679688 -4.320312 3.320312 -6.945312 3.09375 -10.1875 L 8.03125 -10.1875 C 8.15625 -8.695312 8.660156 -7.46875 9.546875 -6.5 C 10.429688 -5.53125 11.550781 -4.804688 12.90625 -4.328125 C 14.269531 -3.859375 15.734375 -3.625 17.296875 -3.625 C 19.128906 -3.625 20.769531 -3.921875 22.21875 -4.515625 C 23.675781 -5.117188 24.828125 -5.957031 25.671875 -7.03125 C 26.523438 -8.113281 26.953125 -9.375 26.953125 -10.8125 C 26.953125 -12.125 26.582031 -13.191406 25.84375 -14.015625 C 25.113281 -14.835938 24.148438 -15.503906 22.953125 -16.015625 C 21.753906 -16.535156 20.460938 -16.988281 19.078125 -17.375 L 14.21875 -18.765625 C 11.125 -19.648438 8.675781 -20.914062 6.875 -22.5625 C 5.070312 -24.21875 4.171875 -26.378906 4.171875 -29.046875 C 4.171875 -31.253906 4.769531 -33.1875 5.96875 -34.84375 C 7.175781 -36.5 8.800781 -37.785156 10.84375 -38.703125 C 12.882812 -39.628906 15.164062 -40.09375 17.6875 -40.09375 C 20.238281 -40.09375 22.503906 -39.632812 24.484375 -38.71875 C 26.460938 -37.8125 28.035156 -36.570312 29.203125 -35 C 30.367188 -33.4375 30.984375 -31.65625 31.046875 -29.65625 Z M 26.421875 -29.65625 "/></g></g></g><g fill="#7f7f7f" fill-opacity="1"><g transform="translate(300.911017, 50.592228)"><g><path d="M 26.421875 -29.65625 C 26.179688 -31.613281 25.238281 -33.132812 23.59375 -34.21875 C 21.945312 -35.300781 19.925781 -35.84375 17.53125 -35.84375 C 14.90625 -35.84375 12.796875 -35.21875 11.203125 -33.96875 C 9.609375 -32.726562 8.8125 -31.160156 8.8125 -29.265625 C 8.8125 -27.859375 9.242188 -26.71875 10.109375 -25.84375 C 10.972656 -24.976562 12 -24.300781 13.1875 -23.8125 C 14.382812 -23.332031 15.472656 -22.960938 16.453125 -22.703125 L 20.46875 -21.625 C 21.5 -21.351562 22.644531 -20.976562 23.90625 -20.5 C 25.175781 -20.03125 26.394531 -19.382812 27.5625 -18.5625 C 28.726562 -17.75 29.691406 -16.703125 30.453125 -15.421875 C 31.210938 -14.148438 31.59375 -12.585938 31.59375 -10.734375 C 31.59375 -8.597656 31.035156 -6.664062 29.921875 -4.9375 C 28.804688 -3.21875 27.179688 -1.847656 25.046875 -0.828125 C 22.921875 0.179688 20.335938 0.6875 17.296875 0.6875 C 13.046875 0.6875 9.671875 -0.3125 7.171875 -2.3125 C 4.679688 -4.320312 3.320312 -6.945312 3.09375 -10.1875 L 8.03125 -10.1875 C 8.15625 -8.695312 8.660156 -7.46875 9.546875 -6.5 C 10.429688 -5.53125 11.550781 -4.804688 12.90625 -4.328125 C 14.269531 -3.859375 15.734375 -3.625 17.296875 -3.625 C 19.128906 -3.625 20.769531 -3.921875 22.21875 -4.515625 C 23.675781 -5.117188 24.828125 -5.957031 25.671875 -7.03125 C 26.523438 -8.113281 26.953125 -9.375 26.953125 -10.8125 C 26.953125 -12.125 26.582031 -13.191406 25.84375 -14.015625 C 25.113281 -14.835938 24.148438 -15.503906 22.953125 -16.015625 C 21.753906 -16.535156 20.460938 -16.988281 19.078125 -17.375 L 14.21875 -18.765625 C 11.125 -19.648438 8.675781 -20.914062 6.875 -22.5625 C 5.070312 -24.21875 4.171875 -26.378906 4.171875 -29.046875 C 4.171875 -31.253906 4.769531 -33.1875 5.96875 -34.84375 C 7.175781 -36.5 8.800781 -37.785156 10.84375 -38.703125 C 12.882812 -39.628906 15.164062 -40.09375 17.6875 -40.09375 C 20.238281 -40.09375 22.503906 -39.632812 24.484375 -38.71875 C 26.460938 -37.8125 28.035156 -36.570312 29.203125 -35 C 30.367188 -33.4375 30.984375 -31.65625 31.046875 -29.65625 Z M 26.421875 -29.65625 "/></g></g></g></g></g></svg>