<svg xmlns="http://www.w3.org/2000/svg" xmlns:xlink="http://www.w3.org/1999/xlink" width="500" zoomAndPan="magnify" viewBox="0 0 375 374.999991" height="500" preserveAspectRatio="xMidYMid meet" version="1.0"><metadata><ContainsAiGeneratedContent>Yes</ContainsAiGeneratedContent></metadata><defs><g/><clipPath id="49ad829c02"><path d="M 52.546875 0 L 322.546875 0 L 322.546875 171 L 52.546875 171 Z M 52.546875 0 " clip-rule="nonzero"/></clipPath><clipPath id="c9e005f605"><rect x="0" width="267" y="0" height="65"/></clipPath></defs><g clip-path="url(#49ad829c02)"><path fill="#7f7f7f" d="M 259.441406 53.957031 C 256.246094 53.957031 253.101562 54.226562 249.863281 54.722656 C 245.816406 23.652344 219.378906 0 187.5 0 C 155.617188 0 129.179688 23.652344 125.132812 54.722656 C 121.894531 54.179688 118.703125 53.957031 115.554688 53.957031 C 80.84375 53.957031 52.605469 82.195312 52.605469 116.90625 C 52.605469 138.441406 63.488281 158.273438 81.652344 169.917969 C 83.722656 171.265625 86.511719 170.636719 87.859375 168.570312 C 89.207031 166.5 88.578125 163.710938 86.511719 162.363281 C 70.90625 152.382812 61.601562 135.386719 61.601562 116.90625 C 61.601562 87.140625 85.789062 62.949219 115.554688 62.949219 C 119.648438 62.949219 123.785156 63.445312 128.144531 64.476562 C 129.449219 64.792969 130.800781 64.476562 131.878906 63.714844 C 132.957031 62.902344 133.585938 61.691406 133.675781 60.339844 C 135.070312 31.566406 158.675781 8.992188 187.5 8.992188 C 216.320312 8.992188 239.925781 31.566406 241.320312 60.339844 C 241.363281 61.691406 242.039062 62.902344 243.117188 63.714844 C 244.199219 64.523438 245.546875 64.792969 246.851562 64.476562 C 251.210938 63.445312 255.347656 62.949219 259.441406 62.949219 C 289.207031 62.949219 313.394531 87.140625 313.394531 116.90625 C 313.394531 135.386719 304.089844 152.382812 288.488281 162.363281 C 286.417969 163.710938 285.789062 166.5 287.136719 168.570312 C 287.992188 169.917969 289.429688 170.636719 290.914062 170.636719 C 291.722656 170.636719 292.578125 170.414062 293.34375 169.917969 C 311.554688 158.273438 322.390625 138.441406 322.390625 116.90625 C 322.390625 82.195312 294.152344 53.957031 259.441406 53.957031 Z M 259.441406 53.957031 " fill-opacity="1" fill-rule="nonzero"/></g><path fill="#7f7f7f" d="M 254.945312 116.90625 L 120.054688 116.90625 C 107.644531 116.90625 97.570312 126.976562 97.570312 139.386719 L 97.570312 238.308594 C 97.570312 250.71875 107.644531 260.789062 120.054688 260.789062 L 254.945312 260.789062 C 267.355469 260.789062 277.425781 250.71875 277.425781 238.308594 L 277.425781 139.386719 C 277.425781 126.976562 267.355469 116.90625 254.945312 116.90625 Z M 268.433594 238.308594 C 268.433594 245.726562 262.363281 251.796875 254.945312 251.796875 L 120.054688 251.796875 C 112.632812 251.796875 106.5625 245.726562 106.5625 238.308594 L 106.5625 139.386719 C 106.5625 131.96875 112.632812 125.898438 120.054688 125.898438 L 254.945312 125.898438 C 262.363281 125.898438 268.433594 131.96875 268.433594 139.386719 Z M 268.433594 238.308594 " fill-opacity="1" fill-rule="nonzero"/><path fill="#7f7f7f" d="M 205.484375 157.371094 L 183 157.371094 C 180.527344 157.371094 178.503906 159.394531 178.503906 161.867188 L 178.503906 215.824219 C 178.503906 218.296875 180.527344 220.320312 183 220.320312 C 185.476562 220.320312 187.5 218.296875 187.5 215.824219 L 187.5 193.34375 L 205.484375 193.34375 C 215.421875 193.34375 223.46875 185.296875 223.46875 175.359375 C 223.46875 165.421875 215.421875 157.371094 205.484375 157.371094 Z M 205.484375 184.351562 L 187.5 184.351562 L 187.5 166.367188 L 205.484375 166.367188 C 210.429688 166.367188 214.476562 170.414062 214.476562 175.359375 C 214.476562 180.304688 210.429688 184.351562 205.484375 184.351562 Z M 205.484375 184.351562 " fill-opacity="1" fill-rule="nonzero"/><path fill="#7f7f7f" d="M 236.957031 157.371094 C 234.484375 157.371094 232.460938 159.394531 232.460938 161.867188 L 232.460938 215.824219 C 232.460938 218.296875 234.484375 220.320312 236.957031 220.320312 C 239.429688 220.320312 241.453125 218.296875 241.453125 215.824219 L 241.453125 161.867188 C 241.453125 159.394531 239.429688 157.371094 236.957031 157.371094 Z M 236.957031 157.371094 " fill-opacity="1" fill-rule="nonzero"/><path fill="#7f7f7f" d="M 151.300781 160.429688 C 150.671875 158.585938 148.964844 157.371094 147.03125 157.371094 C 145.097656 157.371094 143.390625 158.632812 142.757812 160.429688 L 124.773438 214.386719 C 124.007812 216.726562 125.269531 219.289062 127.605469 220.050781 C 129.988281 220.863281 132.507812 219.558594 133.273438 217.21875 L 139.746094 197.796875 L 154.269531 197.796875 L 160.746094 217.21875 C 161.375 219.109375 163.128906 220.277344 165.015625 220.277344 C 165.464844 220.277344 165.960938 220.1875 166.457031 220.050781 C 168.792969 219.289062 170.097656 216.726562 169.289062 214.386719 Z M 142.804688 188.847656 L 147.074219 176.078125 L 151.347656 188.847656 Z M 142.804688 188.847656 " fill-opacity="1" fill-rule="nonzero"/><g transform="matrix(1, 0, 0, 1, 54, 288)"><g clip-path="url(#c9e005f605)"><g fill="#7f7f7f" fill-opacity="1"><g transform="translate(0.364208, 50.592258)"><g><path d="M 4.78125 0 L 4.78125 -39.546875 L 18.15625 -39.546875 C 21.238281 -39.546875 23.769531 -39.019531 25.75 -37.96875 C 27.738281 -36.914062 29.207031 -35.476562 30.15625 -33.65625 C 31.113281 -31.832031 31.59375 -29.753906 31.59375 -27.421875 C 31.59375 -24.796875 30.988281 -22.503906 29.78125 -20.546875 C 28.582031 -18.597656 26.71875 -17.191406 24.1875 -16.328125 L 33.140625 0 L 27.578125 0 L 19.234375 -15.46875 C 18.910156 -15.457031 18.578125 -15.453125 18.234375 -15.453125 L 9.578125 -15.453125 L 9.578125 0 Z M 9.578125 -19.765625 L 18.078125 -19.765625 C 21.242188 -19.765625 23.5 -20.445312 24.84375 -21.8125 C 26.195312 -23.175781 26.875 -25.046875 26.875 -27.421875 C 26.875 -29.796875 26.191406 -31.703125 24.828125 -33.140625 C 23.472656 -34.578125 21.195312 -35.296875 18 -35.296875 L 9.578125 -35.296875 Z M 9.578125 -19.765625 "/></g></g></g><g fill="#7f7f7f" fill-opacity="1"><g transform="translate(35.121524, 50.592258)"><g><path d="M 4.78125 0 L 4.78125 -39.546875 L 28.65625 -39.546875 L 28.65625 -35.296875 L 9.578125 -35.296875 L 9.578125 -21.9375 L 27.421875 -21.9375 L 27.421875 -17.6875 L 9.578125 -17.6875 L 9.578125 -4.25 L 28.96875 -4.25 L 28.96875 0 Z M 4.78125 0 "/></g></g></g><g fill="#7f7f7f" fill-opacity="1"><g transform="translate(67.638911, 50.592258)"><g><path d="M 26.421875 -29.65625 C 26.179688 -31.613281 25.238281 -33.132812 23.59375 -34.21875 C 21.945312 -35.300781 19.925781 -35.84375 17.53125 -35.84375 C 14.90625 -35.84375 12.796875 -35.21875 11.203125 -33.96875 C 9.609375 -32.726562 8.8125 -31.160156 8.8125 -29.265625 C 8.8125 -27.859375 9.242188 -26.71875 10.109375 -25.84375 C 10.972656 -24.976562 12 -24.300781 13.1875 -23.8125 C 14.382812 -23.332031 15.472656 -22.960938 16.453125 -22.703125 L 20.46875 -21.625 C 21.5 -21.351562 22.644531 -20.976562 23.90625 -20.5 C 25.175781 -20.03125 26.394531 -19.382812 27.5625 -18.5625 C 28.726562 -17.75 29.691406 -16.703125 30.453125 -15.421875 C 31.210938 -14.148438 31.59375 -12.585938 31.59375 -10.734375 C 31.59375 -8.597656 31.035156 -6.664062 29.921875 -4.9375 C 28.804688 -3.21875 27.179688 -1.847656 25.046875 -0.828125 C 22.921875 0.179688 20.335938 0.6875 17.296875 0.6875 C 13.046875 0.6875 9.671875 -0.3125 7.171875 -2.3125 C 4.679688 -4.320312 3.320312 -6.945312 3.09375 -10.1875 L 8.03125 -10.1875 C 8.15625 -8.695312 8.660156 -7.46875 9.546875 -6.5 C 10.429688 -5.53125 11.550781 -4.804688 12.90625 -4.328125 C 14.269531 -3.859375 15.734375 -3.625 17.296875 -3.625 C 19.128906 -3.625 20.769531 -3.921875 22.21875 -4.515625 C 23.675781 -5.117188 24.828125 -5.957031 25.671875 -7.03125 C 26.523438 -8.113281 26.953125 -9.375 26.953125 -10.8125 C 26.953125 -12.125 26.582031 -13.191406 25.84375 -14.015625 C 25.113281 -14.835938 24.148438 -15.503906 22.953125 -16.015625 C 21.753906 -16.535156 20.460938 -16.988281 19.078125 -17.375 L 14.21875 -18.765625 C 11.125 -19.648438 8.675781 -20.914062 6.875 -22.5625 C 5.070312 -24.21875 4.171875 -26.378906 4.171875 -29.046875 C 4.171875 -31.253906 4.769531 -33.1875 5.96875 -34.84375 C 7.175781 -36.5 8.800781 -37.785156 10.84375 -38.703125 C 12.882812 -39.628906 15.164062 -40.09375 17.6875 -40.09375 C 20.238281 -40.09375 22.503906 -39.632812 24.484375 -38.71875 C 26.460938 -37.8125 28.035156 -36.570312 29.203125 -35 C 30.367188 -33.4375 30.984375 -31.65625 31.046875 -29.65625 Z M 26.421875 -29.65625 "/></g></g></g><g fill="#7f7f7f" fill-opacity="1"><g transform="translate(102.318975, 50.592258)"><g><path d="M 2.625 -35.296875 L 2.625 -39.546875 L 32.28125 -39.546875 L 32.28125 -35.296875 L 19.84375 -35.296875 L 19.84375 0 L 15.0625 0 L 15.0625 -35.296875 Z M 2.625 -35.296875 "/></g></g></g><g fill="#7f7f7f" fill-opacity="1"><g transform="translate(137.230759, 50.592258)"><g/></g></g><g fill="#7f7f7f" fill-opacity="1"><g transform="translate(152.523983, 50.592258)"><g><path d="M 6.40625 0 L 1.390625 0 L 15.90625 -39.546875 L 20.859375 -39.546875 L 35.375 0 L 30.359375 0 L 26.375 -11.203125 L 10.390625 -11.203125 Z M 11.890625 -15.453125 L 24.875 -15.453125 L 18.53125 -33.296875 L 18.234375 -33.296875 Z M 11.890625 -15.453125 "/></g></g></g><g fill="#7f7f7f" fill-opacity="1"><g transform="translate(189.289489, 50.592258)"><g><path d="M 4.78125 0 L 4.78125 -39.546875 L 18.15625 -39.546875 C 21.25 -39.546875 23.785156 -38.988281 25.765625 -37.875 C 27.742188 -36.757812 29.207031 -35.253906 30.15625 -33.359375 C 31.113281 -31.472656 31.59375 -29.363281 31.59375 -27.03125 C 31.59375 -24.695312 31.117188 -22.578125 30.171875 -20.671875 C 29.222656 -18.773438 27.765625 -17.257812 25.796875 -16.125 C 23.828125 -15 21.304688 -14.4375 18.234375 -14.4375 L 9.578125 -14.4375 L 9.578125 0 Z M 9.578125 -18.6875 L 18.078125 -18.6875 C 21.253906 -18.6875 23.515625 -19.484375 24.859375 -21.078125 C 26.203125 -22.679688 26.875 -24.664062 26.875 -27.03125 C 26.875 -29.414062 26.195312 -31.390625 24.84375 -32.953125 C 23.5 -34.515625 21.21875 -35.296875 18 -35.296875 L 9.578125 -35.296875 Z M 9.578125 -18.6875 "/></g></g></g><g fill="#7f7f7f" fill-opacity="1"><g transform="translate(223.815086, 50.592258)"><g><path d="M 9.578125 -39.546875 L 9.578125 0 L 4.78125 0 L 4.78125 -39.546875 Z M 9.578125 -39.546875 "/></g></g></g><g fill="#7f7f7f" fill-opacity="1"><g transform="translate(238.181449, 50.592258)"><g><path d="M 25.171875 -23.015625 L 21.078125 -21.859375 C 20.679688 -22.890625 20.015625 -23.851562 19.078125 -24.75 C 18.140625 -25.65625 16.671875 -26.109375 14.671875 -26.109375 C 12.859375 -26.109375 11.347656 -25.691406 10.140625 -24.859375 C 8.941406 -24.023438 8.34375 -22.972656 8.34375 -21.703125 C 8.34375 -20.566406 8.753906 -19.671875 9.578125 -19.015625 C 10.398438 -18.359375 11.6875 -17.8125 13.4375 -17.375 L 17.84375 -16.296875 C 23.09375 -15.003906 25.71875 -12.328125 25.71875 -8.265625 C 25.71875 -6.566406 25.226562 -5.046875 24.25 -3.703125 C 23.28125 -2.367188 21.925781 -1.3125 20.1875 -0.53125 C 18.457031 0.238281 16.441406 0.625 14.140625 0.625 C 11.109375 0.625 8.601562 -0.03125 6.625 -1.34375 C 4.644531 -2.664062 3.390625 -4.585938 2.859375 -7.109375 L 7.1875 -8.1875 C 8 -4.988281 10.289062 -3.390625 14.0625 -3.390625 C 16.1875 -3.390625 17.875 -3.84375 19.125 -4.75 C 20.382812 -5.664062 21.015625 -6.757812 21.015625 -8.03125 C 21.015625 -10.132812 19.546875 -11.523438 16.609375 -12.203125 L 11.65625 -13.359375 C 8.945312 -14.003906 6.957031 -15.003906 5.6875 -16.359375 C 4.414062 -17.722656 3.78125 -19.425781 3.78125 -21.46875 C 3.78125 -23.144531 4.253906 -24.625 5.203125 -25.90625 C 6.148438 -27.195312 7.441406 -28.207031 9.078125 -28.9375 C 10.722656 -29.675781 12.585938 -30.046875 14.671875 -30.046875 C 17.609375 -30.046875 19.914062 -29.398438 21.59375 -28.109375 C 23.28125 -26.828125 24.472656 -25.128906 25.171875 -23.015625 Z M 25.171875 -23.015625 "/></g></g></g></g></g></svg>