<svg xmlns="http://www.w3.org/2000/svg" xmlns:xlink="http://www.w3.org/1999/xlink" width="500" zoomAndPan="magnify" viewBox="0 0 375 374.999991" height="500" preserveAspectRatio="xMidYMid meet" version="1.0"><metadata><ContainsAiGeneratedContent>Yes</ContainsAiGeneratedContent></metadata><defs><g/><clipPath id="865ffe5a4a"><path d="M 53.582031 0 L 323 0 L 323 270 L 53.582031 270 Z M 53.582031 0 " clip-rule="nonzero"/></clipPath><clipPath id="e116b4c3d3"><path d="M 53.582031 0 L 323 0 L 323 69 L 53.582031 69 Z M 53.582031 0 " clip-rule="nonzero"/></clipPath><clipPath id="f2963244ad"><rect x="0" width="280" y="0" height="65"/></clipPath></defs><g clip-path="url(#865ffe5a4a)"><path fill="#7f7f7f" d="M 87.453125 -0.628906 C 68.402344 -0.628906 52.953125 14.820312 52.953125 33.875 L 52.953125 234.601562 C 52.953125 253.65625 68.402344 269.101562 87.453125 269.101562 L 288.183594 269.101562 C 307.238281 269.101562 322.683594 253.65625 322.683594 234.601562 L 322.683594 33.875 C 322.683594 14.820312 307.238281 -0.628906 288.183594 -0.628906 Z M 87.453125 -0.628906 " fill-opacity="1" fill-rule="nonzero"/></g><g clip-path="url(#e116b4c3d3)"><path fill="#7f7f7f" d="M 87.453125 -0.628906 C 68.402344 -0.628906 52.953125 14.820312 52.953125 33.875 L 52.953125 58.964844 C 52.953125 64.160156 57.167969 68.375 62.363281 68.375 L 313.277344 68.375 C 318.472656 68.375 322.683594 64.160156 322.683594 58.964844 L 322.683594 33.875 C 322.683594 14.820312 307.238281 -0.628906 288.183594 -0.628906 Z M 87.453125 -0.628906 " fill-opacity="1" fill-rule="nonzero"/></g><path fill="#000000" d="M 197.230469 96.601562 C 197.230469 91.40625 201.441406 87.191406 206.636719 87.191406 L 275.640625 87.191406 C 280.835938 87.191406 285.046875 91.40625 285.046875 96.601562 C 285.046875 101.796875 280.835938 106.011719 275.640625 106.011719 L 216.046875 106.011719 L 216.046875 149.921875 L 275.640625 149.921875 C 280.835938 149.921875 285.046875 154.132812 285.046875 159.328125 L 285.046875 222.058594 C 285.046875 227.253906 280.835938 231.464844 275.640625 231.464844 L 206.636719 231.464844 C 201.441406 231.464844 197.230469 227.253906 197.230469 222.058594 C 197.230469 216.859375 201.441406 212.648438 206.636719 212.648438 L 266.230469 212.648438 L 266.230469 168.738281 L 206.636719 168.738281 C 201.441406 168.738281 197.230469 164.527344 197.230469 159.328125 Z M 197.230469 96.601562 " fill-opacity="1" fill-rule="evenodd"/><path fill="#000000" d="M 78.046875 96.601562 C 78.046875 91.40625 82.257812 87.191406 87.453125 87.191406 L 175.273438 87.191406 C 180.46875 87.191406 184.683594 91.40625 184.683594 96.601562 C 184.683594 101.796875 180.46875 106.011719 175.273438 106.011719 L 140.773438 106.011719 L 140.773438 222.058594 C 140.773438 227.253906 136.5625 231.464844 131.363281 231.464844 C 126.167969 231.464844 121.957031 227.253906 121.957031 222.058594 L 121.957031 106.011719 L 87.453125 106.011719 C 82.257812 106.011719 78.046875 101.796875 78.046875 96.601562 Z M 78.046875 96.601562 " fill-opacity="1" fill-rule="evenodd"/><g transform="matrix(1, 0, 0, 1, 47, 288)"><g clip-path="url(#f2963244ad)"><g fill="#7f7f7f" fill-opacity="1"><g transform="translate(1.34828, 50.592287)"><g><path d="M 2.625 -35.296875 L 2.625 -39.546875 L 32.28125 -39.546875 L 32.28125 -35.296875 L 19.84375 -35.296875 L 19.84375 0 L 15.0625 0 L 15.0625 -35.296875 Z M 2.625 -35.296875 "/></g></g></g><g fill="#7f7f7f" fill-opacity="1"><g transform="translate(32.861302, 50.592287)"><g><path d="M 6.953125 11.515625 C 6.179688 11.515625 5.492188 11.453125 4.890625 11.328125 C 4.285156 11.203125 3.863281 11.082031 3.625 10.96875 L 4.78125 6.953125 C 6.445312 7.378906 7.835938 7.367188 8.953125 6.921875 C 10.066406 6.472656 11.019531 5.144531 11.8125 2.9375 L 12.828125 0.15625 L 1.859375 -29.65625 L 6.796875 -29.65625 L 14.984375 -6.03125 L 15.296875 -6.03125 L 23.484375 -29.65625 L 28.421875 -29.65625 L 15.671875 4.78125 C 14.003906 9.269531 11.097656 11.515625 6.953125 11.515625 Z M 6.953125 11.515625 "/></g></g></g><g fill="#7f7f7f" fill-opacity="1"><g transform="translate(63.138778, 50.592287)"><g><path d="M 4.171875 11.125 L 4.171875 -29.65625 L 8.578125 -29.65625 L 8.578125 -24.953125 L 9.109375 -24.953125 C 9.441406 -25.460938 9.90625 -26.117188 10.5 -26.921875 C 11.101562 -27.734375 11.96875 -28.457031 13.09375 -29.09375 C 14.226562 -29.726562 15.757812 -30.046875 17.6875 -30.046875 C 20.1875 -30.046875 22.390625 -29.421875 24.296875 -28.171875 C 26.203125 -26.921875 27.6875 -25.148438 28.75 -22.859375 C 29.820312 -20.566406 30.359375 -17.863281 30.359375 -14.75 C 30.359375 -11.613281 29.820312 -8.894531 28.75 -6.59375 C 27.6875 -4.289062 26.207031 -2.507812 24.3125 -1.25 C 22.414062 0 20.234375 0.625 17.765625 0.625 C 15.859375 0.625 14.332031 0.304688 13.1875 -0.328125 C 12.039062 -0.972656 11.15625 -1.703125 10.53125 -2.515625 C 9.914062 -3.335938 9.441406 -4.019531 9.109375 -4.5625 L 8.734375 -4.5625 L 8.734375 11.125 Z M 8.65625 -14.828125 C 8.65625 -11.472656 9.382812 -8.738281 10.84375 -6.625 C 12.300781 -4.519531 14.398438 -3.46875 17.140625 -3.46875 C 19.046875 -3.46875 20.640625 -3.972656 21.921875 -4.984375 C 23.203125 -5.992188 24.164062 -7.359375 24.8125 -9.078125 C 25.46875 -10.796875 25.796875 -12.710938 25.796875 -14.828125 C 25.796875 -16.910156 25.476562 -18.789062 24.84375 -20.46875 C 24.207031 -22.15625 23.25 -23.488281 21.96875 -24.46875 C 20.6875 -25.457031 19.078125 -25.953125 17.140625 -25.953125 C 14.359375 -25.953125 12.25 -24.925781 10.8125 -22.875 C 9.375 -20.832031 8.65625 -18.148438 8.65625 -14.828125 Z M 8.65625 -14.828125 "/></g></g></g><g fill="#7f7f7f" fill-opacity="1"><g transform="translate(96.274072, 50.592287)"><g><path d="M 16.609375 0.625 C 13.742188 0.625 11.28125 -0.0078125 9.21875 -1.28125 C 7.15625 -2.550781 5.566406 -4.328125 4.453125 -6.609375 C 3.335938 -8.898438 2.78125 -11.5625 2.78125 -14.59375 C 2.78125 -17.632812 3.335938 -20.316406 4.453125 -22.640625 C 5.566406 -24.960938 7.125 -26.773438 9.125 -28.078125 C 11.125 -29.390625 13.460938 -30.046875 16.140625 -30.046875 C 17.679688 -30.046875 19.207031 -29.785156 20.71875 -29.265625 C 22.226562 -28.753906 23.597656 -27.921875 24.828125 -26.765625 C 26.066406 -25.617188 27.050781 -24.097656 27.78125 -22.203125 C 28.519531 -20.316406 28.890625 -17.988281 28.890625 -15.21875 L 28.890625 -13.28125 L 7.359375 -13.28125 C 7.460938 -10.113281 8.359375 -7.6875 10.046875 -6 C 11.742188 -4.3125 13.929688 -3.46875 16.609375 -3.46875 C 18.398438 -3.46875 19.9375 -3.851562 21.21875 -4.625 C 22.507812 -5.40625 23.441406 -6.566406 24.015625 -8.109375 L 28.421875 -6.875 C 27.722656 -4.632812 26.332031 -2.820312 24.25 -1.4375 C 22.164062 -0.0625 19.617188 0.625 16.609375 0.625 Z M 7.359375 -17.21875 L 24.25 -17.21875 C 24.25 -19.726562 23.515625 -21.8125 22.046875 -23.46875 C 20.578125 -25.125 18.609375 -25.953125 16.140625 -25.953125 C 14.398438 -25.953125 12.894531 -25.546875 11.625 -24.734375 C 10.351562 -23.921875 9.347656 -22.847656 8.609375 -21.515625 C 7.878906 -20.179688 7.460938 -18.75 7.359375 -17.21875 Z M 7.359375 -17.21875 "/></g></g></g><g fill="#7f7f7f" fill-opacity="1"><g transform="translate(127.94185, 50.592287)"><g><path d="M 26.421875 -29.65625 C 26.179688 -31.613281 25.238281 -33.132812 23.59375 -34.21875 C 21.945312 -35.300781 19.925781 -35.84375 17.53125 -35.84375 C 14.90625 -35.84375 12.796875 -35.21875 11.203125 -33.96875 C 9.609375 -32.726562 8.8125 -31.160156 8.8125 -29.265625 C 8.8125 -27.859375 9.242188 -26.71875 10.109375 -25.84375 C 10.972656 -24.976562 12 -24.300781 13.1875 -23.8125 C 14.382812 -23.332031 15.472656 -22.960938 16.453125 -22.703125 L 20.46875 -21.625 C 21.5 -21.351562 22.644531 -20.976562 23.90625 -20.5 C 25.175781 -20.03125 26.394531 -19.382812 27.5625 -18.5625 C 28.726562 -17.75 29.691406 -16.703125 30.453125 -15.421875 C 31.210938 -14.148438 31.59375 -12.585938 31.59375 -10.734375 C 31.59375 -8.597656 31.035156 -6.664062 29.921875 -4.9375 C 28.804688 -3.21875 27.179688 -1.847656 25.046875 -0.828125 C 22.921875 0.179688 20.335938 0.6875 17.296875 0.6875 C 13.046875 0.6875 9.671875 -0.3125 7.171875 -2.3125 C 4.679688 -4.320312 3.320312 -6.945312 3.09375 -10.1875 L 8.03125 -10.1875 C 8.15625 -8.695312 8.660156 -7.46875 9.546875 -6.5 C 10.429688 -5.53125 11.550781 -4.804688 12.90625 -4.328125 C 14.269531 -3.859375 15.734375 -3.625 17.296875 -3.625 C 19.128906 -3.625 20.769531 -3.921875 22.21875 -4.515625 C 23.675781 -5.117188 24.828125 -5.957031 25.671875 -7.03125 C 26.523438 -8.113281 26.953125 -9.375 26.953125 -10.8125 C 26.953125 -12.125 26.582031 -13.191406 25.84375 -14.015625 C 25.113281 -14.835938 24.148438 -15.503906 22.953125 -16.015625 C 21.753906 -16.535156 20.460938 -16.988281 19.078125 -17.375 L 14.21875 -18.765625 C 11.125 -19.648438 8.675781 -20.914062 6.875 -22.5625 C 5.070312 -24.21875 4.171875 -26.378906 4.171875 -29.046875 C 4.171875 -31.253906 4.769531 -33.1875 5.96875 -34.84375 C 7.175781 -36.5 8.800781 -37.785156 10.84375 -38.703125 C 12.882812 -39.628906 15.164062 -40.09375 17.6875 -40.09375 C 20.238281 -40.09375 22.503906 -39.632812 24.484375 -38.71875 C 26.460938 -37.8125 28.035156 -36.570312 29.203125 -35 C 30.367188 -33.4375 30.984375 -31.65625 31.046875 -29.65625 Z M 26.421875 -29.65625 "/></g></g></g><g fill="#7f7f7f" fill-opacity="1"><g transform="translate(162.621913, 50.592287)"><g><path d="M 16.21875 0.625 C 13.4375 0.625 11.039062 -0.03125 9.03125 -1.34375 C 7.03125 -2.664062 5.488281 -4.476562 4.40625 -6.78125 C 3.320312 -9.082031 2.78125 -11.710938 2.78125 -14.671875 C 2.78125 -17.679688 3.335938 -20.34375 4.453125 -22.65625 C 5.566406 -24.96875 7.125 -26.773438 9.125 -28.078125 C 11.125 -29.390625 13.460938 -30.046875 16.140625 -30.046875 C 18.222656 -30.046875 20.101562 -29.660156 21.78125 -28.890625 C 23.457031 -28.117188 24.828125 -27.035156 25.890625 -25.640625 C 26.960938 -24.253906 27.625 -22.632812 27.875 -20.78125 L 23.328125 -20.78125 C 22.972656 -22.125 22.203125 -23.320312 21.015625 -24.375 C 19.828125 -25.425781 18.226562 -25.953125 16.21875 -25.953125 C 13.550781 -25.953125 11.40625 -24.9375 9.78125 -22.90625 C 8.15625 -20.882812 7.34375 -18.191406 7.34375 -14.828125 C 7.34375 -11.390625 8.144531 -8.632812 9.75 -6.5625 C 11.363281 -4.5 13.519531 -3.46875 16.21875 -3.46875 C 18 -3.46875 19.519531 -3.925781 20.78125 -4.84375 C 22.050781 -5.757812 22.898438 -7.03125 23.328125 -8.65625 L 27.875 -8.65625 C 27.625 -6.90625 26.992188 -5.328125 25.984375 -3.921875 C 24.972656 -2.523438 23.640625 -1.414062 21.984375 -0.59375 C 20.328125 0.21875 18.40625 0.625 16.21875 0.625 Z M 16.21875 0.625 "/></g></g></g><g fill="#7f7f7f" fill-opacity="1"><g transform="translate(192.976623, 50.592287)"><g><path d="M 4.171875 0 L 4.171875 -29.65625 L 8.578125 -29.65625 L 8.578125 -25.171875 L 8.875 -25.171875 C 9.40625 -26.640625 10.378906 -27.832031 11.796875 -28.75 C 13.210938 -29.664062 14.816406 -30.125 16.609375 -30.125 C 17.429688 -30.125 18.148438 -30.023438 18.765625 -29.828125 C 19.390625 -29.640625 19.929688 -29.378906 20.390625 -29.046875 L 18.84375 -25.171875 C 18.519531 -25.347656 18.140625 -25.484375 17.703125 -25.578125 C 17.273438 -25.671875 16.78125 -25.71875 16.21875 -25.71875 C 14.050781 -25.71875 12.257812 -25.054688 10.84375 -23.734375 C 9.4375 -22.421875 8.734375 -20.765625 8.734375 -18.765625 L 8.734375 0 Z M 4.171875 0 "/></g></g></g><g fill="#7f7f7f" fill-opacity="1"><g transform="translate(213.831017, 50.592287)"><g><path d="M 4.171875 0 L 4.171875 -29.65625 L 8.734375 -29.65625 L 8.734375 0 Z M 6.484375 -34.609375 C 5.597656 -34.609375 4.835938 -34.910156 4.203125 -35.515625 C 3.566406 -36.117188 3.25 -36.84375 3.25 -37.6875 C 3.25 -38.539062 3.566406 -39.269531 4.203125 -39.875 C 4.835938 -40.476562 5.597656 -40.78125 6.484375 -40.78125 C 7.367188 -40.78125 8.128906 -40.476562 8.765625 -39.875 C 9.410156 -39.269531 9.734375 -38.539062 9.734375 -37.6875 C 9.734375 -36.84375 9.410156 -36.117188 8.765625 -35.515625 C 8.128906 -34.910156 7.367188 -34.609375 6.484375 -34.609375 Z M 6.484375 -34.609375 "/></g></g></g><g fill="#7f7f7f" fill-opacity="1"><g transform="translate(226.729844, 50.592287)"><g><path d="M 4.171875 11.125 L 4.171875 -29.65625 L 8.578125 -29.65625 L 8.578125 -24.953125 L 9.109375 -24.953125 C 9.441406 -25.460938 9.90625 -26.117188 10.5 -26.921875 C 11.101562 -27.734375 11.96875 -28.457031 13.09375 -29.09375 C 14.226562 -29.726562 15.757812 -30.046875 17.6875 -30.046875 C 20.1875 -30.046875 22.390625 -29.421875 24.296875 -28.171875 C 26.203125 -26.921875 27.6875 -25.148438 28.75 -22.859375 C 29.820312 -20.566406 30.359375 -17.863281 30.359375 -14.75 C 30.359375 -11.613281 29.820312 -8.894531 28.75 -6.59375 C 27.6875 -4.289062 26.207031 -2.507812 24.3125 -1.25 C 22.414062 0 20.234375 0.625 17.765625 0.625 C 15.859375 0.625 14.332031 0.304688 13.1875 -0.328125 C 12.039062 -0.972656 11.15625 -1.703125 10.53125 -2.515625 C 9.914062 -3.335938 9.441406 -4.019531 9.109375 -4.5625 L 8.734375 -4.5625 L 8.734375 11.125 Z M 8.65625 -14.828125 C 8.65625 -11.472656 9.382812 -8.738281 10.84375 -6.625 C 12.300781 -4.519531 14.398438 -3.46875 17.140625 -3.46875 C 19.046875 -3.46875 20.640625 -3.972656 21.921875 -4.984375 C 23.203125 -5.992188 24.164062 -7.359375 24.8125 -9.078125 C 25.46875 -10.796875 25.796875 -12.710938 25.796875 -14.828125 C 25.796875 -16.910156 25.476562 -18.789062 24.84375 -20.46875 C 24.207031 -22.15625 23.25 -23.488281 21.96875 -24.46875 C 20.6875 -25.457031 19.078125 -25.953125 17.140625 -25.953125 C 14.359375 -25.953125 12.25 -24.925781 10.8125 -22.875 C 9.375 -20.832031 8.65625 -18.148438 8.65625 -14.828125 Z M 8.65625 -14.828125 "/></g></g></g><g fill="#7f7f7f" fill-opacity="1"><g transform="translate(259.865139, 50.592287)"><g><path d="M 17.0625 -29.65625 L 17.0625 -25.796875 L 10.734375 -25.796875 L 10.734375 -8.5 C 10.734375 -7.207031 10.921875 -6.242188 11.296875 -5.609375 C 11.679688 -4.972656 12.171875 -4.546875 12.765625 -4.328125 C 13.367188 -4.117188 14.003906 -4.015625 14.671875 -4.015625 C 15.171875 -4.015625 15.582031 -4.039062 15.90625 -4.09375 C 16.226562 -4.15625 16.488281 -4.207031 16.6875 -4.25 L 17.609375 -0.15625 C 17.296875 -0.0390625 16.863281 0.078125 16.3125 0.203125 C 15.757812 0.328125 15.0625 0.390625 14.21875 0.390625 C 12.925781 0.390625 11.664062 0.113281 10.4375 -0.4375 C 9.207031 -1 8.1875 -1.84375 7.375 -2.96875 C 6.570312 -4.101562 6.171875 -5.535156 6.171875 -7.265625 L 6.171875 -25.796875 L 1.703125 -25.796875 L 1.703125 -29.65625 L 6.171875 -29.65625 L 6.171875 -36.765625 L 10.734375 -36.765625 L 10.734375 -29.65625 Z M 17.0625 -29.65625 "/></g></g></g></g></g></svg>