<svg xmlns="http://www.w3.org/2000/svg" xmlns:xlink="http://www.w3.org/1999/xlink" width="500" zoomAndPan="magnify" viewBox="0 0 375 374.999991" height="500" preserveAspectRatio="xMidYMid meet" version="1.0"><metadata><ContainsAiGeneratedContent>Yes</ContainsAiGeneratedContent></metadata><defs><g/><clipPath id="fbb339df3c"><path d="M 52.3125 28 L 322.3125 28 L 322.3125 237 L 52.3125 237 Z M 52.3125 28 " clip-rule="nonzero"/></clipPath><clipPath id="f2931177df"><rect x="0" width="155" y="0" height="65"/></clipPath></defs><g clip-path="url(#fbb339df3c)"><path fill="#7f7f7f" d="M 300.144531 236.554688 C 312.582031 236.554688 322.675781 226.550781 322.675781 214.226562 L 322.675781 50.476562 C 322.675781 38.152344 312.582031 28.148438 300.144531 28.148438 L 74.84375 28.148438 C 62.40625 28.148438 52.3125 38.152344 52.3125 50.476562 L 52.3125 214.226562 C 52.3125 226.550781 62.40625 236.554688 74.84375 236.554688 Z M 283.574219 102.476562 C 299.390625 102.476562 307.660156 115.835938 307.660156 132.757812 C 307.660156 134.390625 307.523438 137.816406 307.46875 138.75 L 274.84375 138.75 C 275.597656 146.46875 281.320312 148.753906 287.800781 148.753906 C 294.410156 148.753906 299.628906 147.367188 304.179688 145.082031 L 304.179688 158.386719 C 299.617188 160.851562 293.667969 162.667969 285.679688 162.667969 C 269.4375 162.667969 258.082031 152.574219 258.082031 132.667969 C 258.09375 115.828125 267.714844 102.476562 283.574219 102.476562 Z M 203.695312 103.605469 L 218.382812 103.605469 L 219.226562 107.691406 C 221.527344 105.597656 225.75 102.535156 232.273438 102.535156 C 243.953125 102.535156 254.996094 113 254.996094 132.21875 L 255.007812 132.21875 C 255.007812 153.191406 244.125 162.6875 232.195312 162.734375 C 226.371094 162.734375 222.800781 160.265625 220.410156 158.542969 L 220.367188 177.242188 L 203.703125 180.734375 L 203.703125 103.605469 Z M 180.644531 85.128906 L 197.394531 81.589844 L 197.394531 95.042969 L 180.644531 98.578125 Z M 180.644531 103.605469 L 197.394531 103.605469 L 197.394531 161.519531 L 180.644531 161.519531 Z M 147.324219 103.605469 L 161.730469 103.605469 L 162.765625 108.480469 C 166.664062 101.363281 174.449219 102.804688 176.65625 103.605469 L 176.703125 103.605469 L 176.703125 118.824219 C 174.585938 118.125 167.925781 117.144531 163.984375 122.269531 L 163.984375 161.527344 L 147.324219 161.527344 Z M 113.042969 92.710938 L 129.332031 89.261719 L 129.332031 103.59375 L 141.960938 103.59375 L 141.960938 117.683594 L 129.289062 117.683594 L 129.289062 141.171875 C 129.289062 150.894531 139.855469 147.875 141.960938 147.042969 L 141.960938 160.492188 C 139.753906 161.699219 135.71875 162.679688 130.277344 162.679688 C 120.375 162.679688 112.953125 155.46875 112.953125 145.703125 Z M 67.328125 121.222656 C 67.328125 109.507812 76.339844 102.523438 89.859375 102.523438 C 95.402344 102.523438 100.898438 103.367188 106.429688 105.550781 L 106.429688 121.097656 C 101.351562 118.394531 94.929688 116.863281 89.859375 116.863281 C 86.34375 116.863281 84.179688 117.886719 84.179688 120.445312 C 84.179688 127.890625 109.664062 124.355469 109.664062 144.035156 L 109.675781 144.023438 C 109.675781 155.929688 100.15625 162.679688 86.253906 162.769531 C 80.53125 162.769531 74.234375 161.640625 68.039062 158.996094 L 68.039062 143.222656 C 73.671875 146.195312 80.757812 148.484375 86.289062 148.484375 C 89.996094 148.484375 92.664062 147.503906 92.664062 144.441406 C 92.675781 136.53125 67.328125 139.503906 67.328125 121.222656 Z M 67.328125 121.222656 " fill-opacity="1" fill-rule="nonzero"/></g><path fill="#7f7f7f" d="M 228.332031 148.125 C 234.492188 148.125 238.617188 141.464844 238.617188 132.589844 C 238.617188 123.9375 234.390625 117.144531 228.332031 117.1875 C 224.488281 117.1875 222.078125 118.542969 220.355469 120.445312 L 220.445312 145.003906 C 222.089844 146.726562 224.433594 148.125 228.332031 148.125 Z M 228.332031 148.125 " fill-opacity="1" fill-rule="nonzero"/><path fill="#7f7f7f" d="M 283.429688 115.984375 C 279.25 115.984375 274.652344 119.105469 274.652344 126.539062 L 291.875 126.539062 C 291.875 119.09375 287.507812 115.984375 283.429688 115.984375 Z M 283.429688 115.984375 " fill-opacity="1" fill-rule="nonzero"/><g transform="matrix(1, 0, 0, 1, 110, 288)"><g clip-path="url(#f2931177df)"><g fill="#7f7f7f" fill-opacity="1"><g transform="translate(0.974649, 50.592228)"><g><path d="M 26.421875 -29.65625 C 26.179688 -31.613281 25.238281 -33.132812 23.59375 -34.21875 C 21.945312 -35.300781 19.925781 -35.84375 17.53125 -35.84375 C 14.90625 -35.84375 12.796875 -35.21875 11.203125 -33.96875 C 9.609375 -32.726562 8.8125 -31.160156 8.8125 -29.265625 C 8.8125 -27.859375 9.242188 -26.71875 10.109375 -25.84375 C 10.972656 -24.976562 12 -24.300781 13.1875 -23.8125 C 14.382812 -23.332031 15.472656 -22.960938 16.453125 -22.703125 L 20.46875 -21.625 C 21.5 -21.351562 22.644531 -20.976562 23.90625 -20.5 C 25.175781 -20.03125 26.394531 -19.382812 27.5625 -18.5625 C 28.726562 -17.75 29.691406 -16.703125 30.453125 -15.421875 C 31.210938 -14.148438 31.59375 -12.585938 31.59375 -10.734375 C 31.59375 -8.597656 31.035156 -6.664062 29.921875 -4.9375 C 28.804688 -3.21875 27.179688 -1.847656 25.046875 -0.828125 C 22.921875 0.179688 20.335938 0.6875 17.296875 0.6875 C 13.046875 0.6875 9.671875 -0.3125 7.171875 -2.3125 C 4.679688 -4.320312 3.320312 -6.945312 3.09375 -10.1875 L 8.03125 -10.1875 C 8.15625 -8.695312 8.660156 -7.46875 9.546875 -6.5 C 10.429688 -5.53125 11.550781 -4.804688 12.90625 -4.328125 C 14.269531 -3.859375 15.734375 -3.625 17.296875 -3.625 C 19.128906 -3.625 20.769531 -3.921875 22.21875 -4.515625 C 23.675781 -5.117188 24.828125 -5.957031 25.671875 -7.03125 C 26.523438 -8.113281 26.953125 -9.375 26.953125 -10.8125 C 26.953125 -12.125 26.582031 -13.191406 25.84375 -14.015625 C 25.113281 -14.835938 24.148438 -15.503906 22.953125 -16.015625 C 21.753906 -16.535156 20.460938 -16.988281 19.078125 -17.375 L 14.21875 -18.765625 C 11.125 -19.648438 8.675781 -20.914062 6.875 -22.5625 C 5.070312 -24.21875 4.171875 -26.378906 4.171875 -29.046875 C 4.171875 -31.253906 4.769531 -33.1875 5.96875 -34.84375 C 7.175781 -36.5 8.800781 -37.785156 10.84375 -38.703125 C 12.882812 -39.628906 15.164062 -40.09375 17.6875 -40.09375 C 20.238281 -40.09375 22.503906 -39.632812 24.484375 -38.71875 C 26.460938 -37.8125 28.035156 -36.570312 29.203125 -35 C 30.367188 -33.4375 30.984375 -31.65625 31.046875 -29.65625 Z M 26.421875 -29.65625 "/></g></g></g><g fill="#7f7f7f" fill-opacity="1"><g transform="translate(35.654713, 50.592228)"><g><path d="M 17.0625 -29.65625 L 17.0625 -25.796875 L 10.734375 -25.796875 L 10.734375 -8.5 C 10.734375 -7.207031 10.921875 -6.242188 11.296875 -5.609375 C 11.679688 -4.972656 12.171875 -4.546875 12.765625 -4.328125 C 13.367188 -4.117188 14.003906 -4.015625 14.671875 -4.015625 C 15.171875 -4.015625 15.582031 -4.039062 15.90625 -4.09375 C 16.226562 -4.15625 16.488281 -4.207031 16.6875 -4.25 L 17.609375 -0.15625 C 17.296875 -0.0390625 16.863281 0.078125 16.3125 0.203125 C 15.757812 0.328125 15.0625 0.390625 14.21875 0.390625 C 12.925781 0.390625 11.664062 0.113281 10.4375 -0.4375 C 9.207031 -1 8.1875 -1.84375 7.375 -2.96875 C 6.570312 -4.101562 6.171875 -5.535156 6.171875 -7.265625 L 6.171875 -25.796875 L 1.703125 -25.796875 L 1.703125 -29.65625 L 6.171875 -29.65625 L 6.171875 -36.765625 L 10.734375 -36.765625 L 10.734375 -29.65625 Z M 17.0625 -29.65625 "/></g></g></g><g fill="#7f7f7f" fill-opacity="1"><g transform="translate(55.427758, 50.592228)"><g><path d="M 4.171875 0 L 4.171875 -29.65625 L 8.578125 -29.65625 L 8.578125 -25.171875 L 8.875 -25.171875 C 9.40625 -26.640625 10.378906 -27.832031 11.796875 -28.75 C 13.210938 -29.664062 14.816406 -30.125 16.609375 -30.125 C 17.429688 -30.125 18.148438 -30.023438 18.765625 -29.828125 C 19.390625 -29.640625 19.929688 -29.378906 20.390625 -29.046875 L 18.84375 -25.171875 C 18.519531 -25.347656 18.140625 -25.484375 17.703125 -25.578125 C 17.273438 -25.671875 16.78125 -25.71875 16.21875 -25.71875 C 14.050781 -25.71875 12.257812 -25.054688 10.84375 -23.734375 C 9.4375 -22.421875 8.734375 -20.765625 8.734375 -18.765625 L 8.734375 0 Z M 4.171875 0 "/></g></g></g><g fill="#7f7f7f" fill-opacity="1"><g transform="translate(76.282152, 50.592228)"><g><path d="M 4.171875 0 L 4.171875 -29.65625 L 8.734375 -29.65625 L 8.734375 0 Z M 6.484375 -34.609375 C 5.597656 -34.609375 4.835938 -34.910156 4.203125 -35.515625 C 3.566406 -36.117188 3.25 -36.84375 3.25 -37.6875 C 3.25 -38.539062 3.566406 -39.269531 4.203125 -39.875 C 4.835938 -40.476562 5.597656 -40.78125 6.484375 -40.78125 C 7.367188 -40.78125 8.128906 -40.476562 8.765625 -39.875 C 9.410156 -39.269531 9.734375 -38.539062 9.734375 -37.6875 C 9.734375 -36.84375 9.410156 -36.117188 8.765625 -35.515625 C 8.128906 -34.910156 7.367188 -34.609375 6.484375 -34.609375 Z M 6.484375 -34.609375 "/></g></g></g><g fill="#7f7f7f" fill-opacity="1"><g transform="translate(89.18098, 50.592228)"><g><path d="M 4.171875 11.125 L 4.171875 -29.65625 L 8.578125 -29.65625 L 8.578125 -24.953125 L 9.109375 -24.953125 C 9.441406 -25.460938 9.90625 -26.117188 10.5 -26.921875 C 11.101562 -27.734375 11.96875 -28.457031 13.09375 -29.09375 C 14.226562 -29.726562 15.757812 -30.046875 17.6875 -30.046875 C 20.1875 -30.046875 22.390625 -29.421875 24.296875 -28.171875 C 26.203125 -26.921875 27.6875 -25.148438 28.75 -22.859375 C 29.820312 -20.566406 30.359375 -17.863281 30.359375 -14.75 C 30.359375 -11.613281 29.820312 -8.894531 28.75 -6.59375 C 27.6875 -4.289062 26.207031 -2.507812 24.3125 -1.25 C 22.414062 0 20.234375 0.625 17.765625 0.625 C 15.859375 0.625 14.332031 0.304688 13.1875 -0.328125 C 12.039062 -0.972656 11.15625 -1.703125 10.53125 -2.515625 C 9.914062 -3.335938 9.441406 -4.019531 9.109375 -4.5625 L 8.734375 -4.5625 L 8.734375 11.125 Z M 8.65625 -14.828125 C 8.65625 -11.472656 9.382812 -8.738281 10.84375 -6.625 C 12.300781 -4.519531 14.398438 -3.46875 17.140625 -3.46875 C 19.046875 -3.46875 20.640625 -3.972656 21.921875 -4.984375 C 23.203125 -5.992188 24.164062 -7.359375 24.8125 -9.078125 C 25.46875 -10.796875 25.796875 -12.710938 25.796875 -14.828125 C 25.796875 -16.910156 25.476562 -18.789062 24.84375 -20.46875 C 24.207031 -22.15625 23.25 -23.488281 21.96875 -24.46875 C 20.6875 -25.457031 19.078125 -25.953125 17.140625 -25.953125 C 14.359375 -25.953125 12.25 -24.925781 10.8125 -22.875 C 9.375 -20.832031 8.65625 -18.148438 8.65625 -14.828125 Z M 8.65625 -14.828125 "/></g></g></g><g fill="#7f7f7f" fill-opacity="1"><g transform="translate(122.316274, 50.592228)"><g><path d="M 16.609375 0.625 C 13.742188 0.625 11.28125 -0.0078125 9.21875 -1.28125 C 7.15625 -2.550781 5.566406 -4.328125 4.453125 -6.609375 C 3.335938 -8.898438 2.78125 -11.5625 2.78125 -14.59375 C 2.78125 -17.632812 3.335938 -20.316406 4.453125 -22.640625 C 5.566406 -24.960938 7.125 -26.773438 9.125 -28.078125 C 11.125 -29.390625 13.460938 -30.046875 16.140625 -30.046875 C 17.679688 -30.046875 19.207031 -29.785156 20.71875 -29.265625 C 22.226562 -28.753906 23.597656 -27.921875 24.828125 -26.765625 C 26.066406 -25.617188 27.050781 -24.097656 27.78125 -22.203125 C 28.519531 -20.316406 28.890625 -17.988281 28.890625 -15.21875 L 28.890625 -13.28125 L 7.359375 -13.28125 C 7.460938 -10.113281 8.359375 -7.6875 10.046875 -6 C 11.742188 -4.3125 13.929688 -3.46875 16.609375 -3.46875 C 18.398438 -3.46875 19.9375 -3.851562 21.21875 -4.625 C 22.507812 -5.40625 23.441406 -6.566406 24.015625 -8.109375 L 28.421875 -6.875 C 27.722656 -4.632812 26.332031 -2.820312 24.25 -1.4375 C 22.164062 -0.0625 19.617188 0.625 16.609375 0.625 Z M 7.359375 -17.21875 L 24.25 -17.21875 C 24.25 -19.726562 23.515625 -21.8125 22.046875 -23.46875 C 20.578125 -25.125 18.609375 -25.953125 16.140625 -25.953125 C 14.398438 -25.953125 12.894531 -25.546875 11.625 -24.734375 C 10.351562 -23.921875 9.347656 -22.847656 8.609375 -21.515625 C 7.878906 -20.179688 7.460938 -18.75 7.359375 -17.21875 Z M 7.359375 -17.21875 "/></g></g></g></g></g></svg>