<svg xmlns="http://www.w3.org/2000/svg" xmlns:xlink="http://www.w3.org/1999/xlink" width="500" zoomAndPan="magnify" viewBox="0 0 375 374.999991" height="500" preserveAspectRatio="xMidYMid meet" version="1.0"><metadata><ContainsAiGeneratedContent>Yes</ContainsAiGeneratedContent></metadata><defs><g/><clipPath id="c44e0e9c1f"><rect x="0" width="76" y="0" height="65"/></clipPath></defs><path fill="#7f7f7f" d="M 180.488281 2.464844 C 184.828125 0.03125 190.167969 0.03125 194.5 2.464844 C 215.941406 14.5 280.453125 50.71875 301.898438 62.75 C 306.238281 65.179688 308.910156 69.675781 308.910156 74.546875 C 308.910156 98.609375 308.910156 171.042969 308.910156 195.105469 C 308.910156 199.976562 306.238281 204.476562 301.898438 206.910156 C 280.460938 218.941406 215.945312 255.160156 194.5 267.195312 C 190.164062 269.628906 184.820312 269.628906 180.488281 267.195312 C 159.050781 255.160156 94.535156 218.941406 73.089844 206.910156 C 68.757812 204.476562 66.085938 199.984375 66.085938 195.113281 C 66.085938 171.050781 66.085938 98.617188 66.085938 74.550781 C 66.085938 69.683594 68.757812 65.183594 73.097656 62.75 C 94.527344 50.71875 159.054688 14.5 180.488281 2.464844 Z M 180.488281 2.464844 " fill-opacity="1" fill-rule="nonzero"/><path fill="#7f7f7f" d="M 68.03125 201.3125 C 66.328125 199.039062 66.085938 196.878906 66.085938 193.96875 C 66.085938 170.046875 66.085938 98.03125 66.085938 74.097656 C 66.085938 69.253906 68.75 64.78125 73.078125 62.367188 C 94.441406 50.40625 158.738281 14.398438 180.097656 2.429688 C 184.425781 0.0078125 190.285156 0.0585938 194.609375 2.480469 C 215.972656 14.441406 280.050781 50.144531 301.414062 62.105469 C 303.140625 63.078125 304.457031 64.246094 305.632812 65.785156 Z M 68.03125 201.3125 " fill-opacity="1" fill-rule="nonzero"/><path fill="#000000" d="M 187.5 45.371094 C 138.101562 45.371094 98.039062 85.433594 98.039062 134.828125 C 98.039062 184.226562 138.101562 224.289062 187.5 224.289062 C 236.894531 224.289062 276.957031 184.226562 276.957031 134.828125 C 276.957031 85.433594 236.894531 45.371094 187.5 45.371094 Z M 187.5 179.558594 C 162.832031 179.558594 142.769531 159.496094 142.769531 134.828125 C 142.769531 110.164062 162.832031 90.101562 187.5 90.101562 C 212.164062 90.101562 232.226562 110.164062 232.226562 134.828125 C 232.226562 159.496094 212.164062 179.558594 187.5 179.558594 Z M 187.5 179.558594 " fill-opacity="1" fill-rule="nonzero"/><path fill="#7f7f7f" d="M 305.617188 65.847656 C 308.914062 68.9375 308.851562 73.585938 308.851562 77.25 C 308.851562 101.5 308.648438 170.472656 308.910156 194.722656 C 308.933594 197.253906 308.097656 199.917969 306.84375 201.925781 L 184.898438 134.828125 Z M 305.617188 65.847656 " fill-opacity="1" fill-rule="nonzero"/><path fill="#000000" d="M 251.398438 109.269531 L 257.789062 109.269531 L 257.789062 160.390625 L 251.398438 160.390625 Z M 270.570312 109.269531 L 276.957031 109.269531 L 276.957031 160.390625 L 270.570312 160.390625 Z M 270.570312 109.269531 " fill-opacity="1" fill-rule="nonzero"/><path fill="#000000" d="M 238.617188 141.21875 L 289.738281 141.21875 L 289.738281 147.609375 L 238.617188 147.609375 Z M 238.617188 122.050781 L 289.738281 122.050781 L 289.738281 128.441406 L 238.617188 128.441406 Z M 238.617188 122.050781 " fill-opacity="1" fill-rule="nonzero"/><g transform="matrix(1, 0, 0, 1, 150, 288)"><g clip-path="url(#c44e0e9c1f)"><g fill="#7f7f7f" fill-opacity="1"><g transform="translate(0.61498, 50.592258)"><g><path d="M 36.609375 -27.1875 L 31.828125 -27.1875 C 31.441406 -29.007812 30.695312 -30.546875 29.59375 -31.796875 C 28.5 -33.046875 27.179688 -33.992188 25.640625 -34.640625 C 24.097656 -35.285156 22.453125 -35.609375 20.703125 -35.609375 C 18.304688 -35.609375 16.140625 -35 14.203125 -33.78125 C 12.265625 -32.570312 10.722656 -30.789062 9.578125 -28.4375 C 8.441406 -26.082031 7.875 -23.191406 7.875 -19.765625 C 7.875 -16.347656 8.441406 -13.457031 9.578125 -11.09375 C 10.722656 -8.738281 12.265625 -6.957031 14.203125 -5.75 C 16.140625 -4.539062 18.304688 -3.9375 20.703125 -3.9375 C 22.453125 -3.9375 24.097656 -4.257812 25.640625 -4.90625 C 27.179688 -5.550781 28.5 -6.492188 29.59375 -7.734375 C 30.695312 -8.984375 31.441406 -10.523438 31.828125 -12.359375 L 36.609375 -12.359375 C 36.117188 -9.648438 35.117188 -7.332031 33.609375 -5.40625 C 32.109375 -3.488281 30.242188 -2.015625 28.015625 -0.984375 C 25.785156 0.0351562 23.347656 0.546875 20.703125 0.546875 C 17.328125 0.546875 14.328125 -0.273438 11.703125 -1.921875 C 9.078125 -3.578125 7.007812 -5.921875 5.5 -8.953125 C 4 -11.992188 3.25 -15.597656 3.25 -19.765625 C 3.25 -23.941406 4 -27.546875 5.5 -30.578125 C 7.007812 -33.617188 9.078125 -35.960938 11.703125 -37.609375 C 14.328125 -39.265625 17.328125 -40.09375 20.703125 -40.09375 C 23.347656 -40.09375 25.785156 -39.578125 28.015625 -38.546875 C 30.242188 -37.523438 32.109375 -36.050781 33.609375 -34.125 C 35.117188 -32.207031 36.117188 -29.894531 36.609375 -27.1875 Z M 36.609375 -27.1875 "/></g></g></g><g fill="#7f7f7f" fill-opacity="1"><g transform="translate(40.161071, 50.592258)"><g><path d="M 18.921875 0 L 20.71875 -10.96875 L 10.671875 -10.96875 L 8.875 0 L 5.015625 0 L 6.8125 -10.96875 L 0.921875 -10.96875 L 1.546875 -14.828125 L 7.453125 -14.828125 L 9.078125 -24.71875 L 3.25 -24.71875 L 3.859375 -28.578125 L 9.71875 -28.578125 L 11.515625 -39.546875 L 15.375 -39.546875 L 13.578125 -28.578125 L 23.609375 -28.578125 L 25.40625 -39.546875 L 29.265625 -39.546875 L 27.484375 -28.578125 L 33.359375 -28.578125 L 32.75 -24.71875 L 26.84375 -24.71875 L 25.21875 -14.828125 L 31.046875 -14.828125 L 30.4375 -10.96875 L 24.578125 -10.96875 L 22.78125 0 Z M 11.3125 -14.828125 L 21.359375 -14.828125 L 22.984375 -24.71875 L 12.9375 -24.71875 Z M 11.3125 -14.828125 "/></g></g></g></g></g></svg>