<svg xmlns="http://www.w3.org/2000/svg" xmlns:xlink="http://www.w3.org/1999/xlink" width="500" zoomAndPan="magnify" viewBox="0 0 375 374.999991" height="500" preserveAspectRatio="xMidYMid meet" version="1.0"><metadata><ContainsAiGeneratedContent>Yes</ContainsAiGeneratedContent></metadata><defs><g/><clipPath id="004d32f64b"><path d="M 52.507812 4.664062 L 322.507812 4.664062 L 322.507812 230.414062 L 52.507812 230.414062 Z M 52.507812 4.664062 " clip-rule="nonzero"/></clipPath><clipPath id="1e6b05df48"><rect x="0" width="164" y="0" height="65"/></clipPath></defs><path fill="#000000" d="M 257.429688 140.773438 L 58.320312 140.773438 C 58.320312 140.773438 58.320312 188.65625 58.320312 188.664062 C 58.320312 208.742188 102.890625 225.019531 157.875 225.019531 C 212.859375 225.019531 257.429688 208.742188 257.429688 188.664062 C 257.429688 188.65625 257.429688 140.773438 257.429688 140.773438 Z M 257.429688 140.773438 " fill-opacity="1" fill-rule="nonzero"/><path fill="#000000" d="M 257.429688 93.746094 L 58.320312 93.746094 C 58.320312 93.746094 58.320312 141.628906 58.320312 141.636719 C 58.320312 161.714844 102.890625 177.992188 157.875 177.992188 C 212.859375 177.992188 257.429688 161.714844 257.429688 141.636719 C 257.429688 141.628906 257.429688 93.746094 257.429688 93.746094 Z M 257.429688 93.746094 " fill-opacity="1" fill-rule="nonzero"/><path fill="#000000" d="M 257.429688 46.777344 L 58.320312 46.777344 C 58.320312 46.777344 58.320312 94.660156 58.320312 94.667969 C 58.320312 114.746094 102.890625 131.023438 157.875 131.023438 C 212.859375 131.023438 257.429688 114.746094 257.429688 94.667969 C 257.429688 94.660156 257.429688 46.777344 257.429688 46.777344 Z M 257.429688 46.777344 " fill-opacity="1" fill-rule="nonzero"/><path fill="#000000" d="M 157.875 83.117188 C 212.859375 83.117188 257.429688 66.839844 257.429688 46.761719 C 257.429688 26.679688 212.859375 10.402344 157.875 10.402344 C 102.890625 10.402344 58.320312 26.679688 58.320312 46.761719 C 58.320312 66.839844 102.890625 83.117188 157.875 83.117188 Z M 157.875 83.117188 " fill-opacity="1" fill-rule="nonzero"/><path fill="#000000" d="M 298.171875 106.046875 L 176.382812 106.046875 C 166.160156 106.046875 157.875 114.332031 157.875 124.550781 L 157.875 182.851562 C 157.875 193.074219 166.160156 201.359375 176.382812 201.359375 L 298.171875 201.359375 C 308.390625 201.359375 316.675781 193.074219 316.675781 182.851562 L 316.675781 124.550781 C 316.675781 114.332031 308.390625 106.046875 298.171875 106.046875 Z M 298.171875 106.046875 " fill-opacity="1" fill-rule="nonzero"/><path fill="#000000" d="M 241.636719 131.453125 L 232.539062 131.453125 C 228.707031 131.453125 225.605469 134.554688 225.605469 138.382812 L 225.605469 162.753906 C 225.605469 166.582031 228.707031 169.6875 232.539062 169.6875 L 241.636719 169.6875 C 245.464844 169.6875 248.570312 166.582031 248.570312 162.753906 L 248.570312 138.382812 C 248.570312 134.554688 245.464844 131.453125 241.636719 131.453125 Z M 241.636719 131.453125 " fill-opacity="1" fill-rule="nonzero"/><g clip-path="url(#004d32f64b)"><path fill="#7f7f7f" d="M 298.167969 100.304688 L 263.171875 100.304688 L 263.171875 46.78125 C 263.171875 46.777344 263.171875 46.777344 263.171875 46.773438 C 263.171875 46.765625 263.171875 46.761719 263.171875 46.757812 C 263.171875 19.414062 208.921875 4.664062 157.875 4.664062 C 106.828125 4.664062 52.578125 19.414062 52.578125 46.757812 C 52.578125 46.765625 52.582031 46.773438 52.582031 46.78125 L 52.578125 188.664062 C 52.578125 216.007812 106.828125 230.761719 157.875 230.761719 C 199.546875 230.761719 236.722656 221.5 253.363281 207.101562 L 298.167969 207.101562 C 311.542969 207.101562 322.417969 196.222656 322.417969 182.851562 L 322.417969 124.550781 C 322.417969 111.179688 311.542969 100.304688 298.167969 100.304688 Z M 176.382812 100.304688 C 163.011719 100.304688 152.132812 111.179688 152.132812 124.550781 L 152.132812 125.175781 C 100.023438 124.089844 64.089844 108.589844 64.0625 94.683594 L 64.0625 66.582031 C 82.644531 81.136719 121.039062 88.859375 157.875 88.859375 C 194.710938 88.859375 233.105469 81.136719 251.6875 66.582031 L 251.6875 94.667969 C 251.6875 96.496094 251 98.382812 249.679688 100.304688 Z M 64.0625 141.652344 L 64.0625 114.453125 C 81.707031 128.257812 117.179688 135.910156 152.132812 136.660156 L 152.132812 172.148438 C 100.066406 171.050781 64.089844 155.492188 64.0625 141.652344 Z M 157.875 16.144531 C 211.566406 16.144531 251.6875 32.308594 251.6875 46.757812 C 251.6875 61.210938 211.566406 77.378906 157.875 77.378906 C 104.183594 77.378906 64.058594 61.210938 64.058594 46.757812 C 64.058594 32.308594 104.183594 16.144531 157.875 16.144531 Z M 157.875 219.277344 C 104.183594 219.277344 64.058594 203.113281 64.058594 188.664062 L 64.0625 161.375 C 81.746094 175.203125 117.328125 182.894531 152.214844 183.636719 C 152.636719 196.636719 163.277344 207.101562 176.382812 207.101562 L 231.113281 207.101562 C 213.359375 214.628906 186.578125 219.277344 157.875 219.277344 Z M 310.9375 182.851562 C 310.9375 189.894531 305.207031 195.617188 298.167969 195.617188 L 176.382812 195.617188 C 169.34375 195.617188 163.617188 189.894531 163.617188 182.851562 L 163.617188 124.550781 C 163.617188 117.507812 169.34375 111.785156 176.382812 111.785156 L 298.167969 111.785156 C 305.207031 111.785156 310.9375 117.507812 310.9375 124.550781 Z M 186.648438 138.199219 L 186.648438 143.820312 C 186.648438 144.378906 187.101562 144.824219 187.65625 144.824219 L 197.121094 144.824219 C 204.011719 144.824219 209.613281 150.425781 209.613281 157.316406 L 209.613281 162.9375 C 209.613281 169.828125 204.011719 175.425781 197.121094 175.425781 L 187.65625 175.425781 C 180.765625 175.425781 175.164062 169.828125 175.164062 162.9375 L 175.164062 161.4375 C 175.164062 158.265625 177.738281 155.695312 180.90625 155.695312 C 184.078125 155.695312 186.648438 158.265625 186.648438 161.4375 L 186.648438 162.9375 C 186.648438 163.492188 187.101562 163.945312 187.65625 163.945312 L 197.121094 163.945312 C 197.675781 163.945312 198.128906 163.492188 198.128906 162.9375 L 198.128906 157.316406 C 198.128906 156.761719 197.675781 156.308594 197.121094 156.308594 L 187.65625 156.308594 C 180.765625 156.308594 175.164062 150.707031 175.164062 143.820312 L 175.164062 138.199219 C 175.164062 131.3125 180.765625 125.710938 187.65625 125.710938 L 197.121094 125.710938 C 204.011719 125.710938 209.613281 131.3125 209.613281 138.199219 C 209.613281 141.371094 207.042969 143.941406 203.871094 143.941406 C 200.703125 143.941406 198.128906 141.371094 198.128906 138.199219 C 198.128906 137.644531 197.675781 137.195312 197.121094 137.195312 L 187.65625 137.195312 C 187.101562 137.195312 186.648438 137.644531 186.648438 138.199219 Z M 254.308594 162.757812 L 254.308594 138.382812 C 254.308594 131.398438 248.625 125.710938 241.640625 125.710938 L 232.535156 125.710938 C 225.546875 125.710938 219.863281 131.398438 219.863281 138.382812 L 219.863281 162.757812 C 219.863281 169.742188 225.546875 175.425781 232.535156 175.425781 L 241.640625 175.425781 C 241.914062 175.425781 242.171875 175.363281 242.441406 175.347656 C 245.992188 178.898438 251.367188 180.324219 256.261719 178.863281 C 261.097656 176.796875 253.484375 171.847656 252.488281 169.203125 C 253.617188 167.308594 254.308594 165.121094 254.308594 162.757812 Z M 231.34375 162.757812 L 231.34375 138.382812 C 231.34375 137.726562 231.882812 137.195312 232.535156 137.195312 L 241.640625 137.195312 C 242.296875 137.195312 242.828125 137.726562 242.828125 138.382812 L 242.828125 162.757812 C 242.828125 163.414062 242.296875 163.945312 241.640625 163.945312 L 232.535156 163.945312 C 231.882812 163.945312 231.34375 163.414062 231.34375 162.757812 Z M 300.242188 162.757812 C 300.242188 169.742188 294.554688 175.425781 287.570312 175.425781 L 278.464844 175.425781 C 271.480469 175.425781 265.792969 169.742188 265.792969 162.757812 L 265.792969 131.453125 C 265.792969 128.28125 268.363281 125.710938 271.535156 125.710938 C 274.707031 125.710938 277.277344 128.28125 277.277344 131.453125 L 277.277344 162.757812 C 277.277344 163.414062 277.8125 163.945312 278.464844 163.945312 L 287.570312 163.945312 C 288.226562 163.945312 288.757812 163.414062 288.757812 162.757812 C 288.757812 159.582031 291.328125 157.015625 294.5 157.015625 C 297.671875 157.015625 300.242188 159.582031 300.242188 162.757812 Z M 119.738281 46.757812 C 119.738281 46.203125 120.1875 45.753906 120.742188 45.753906 L 132.222656 45.753906 C 132.777344 45.753906 133.226562 46.203125 133.226562 46.757812 C 133.226562 47.3125 132.777344 47.761719 132.222656 47.761719 L 120.742188 47.761719 C 120.1875 47.761719 119.738281 47.3125 119.738281 46.757812 Z M 148.445312 46.757812 C 148.445312 46.203125 148.890625 45.753906 149.449219 45.753906 L 160.929688 45.753906 C 161.484375 45.753906 161.933594 46.203125 161.933594 46.757812 C 161.933594 47.3125 161.484375 47.761719 160.929688 47.761719 L 149.449219 47.761719 C 148.890625 47.761719 148.445312 47.3125 148.445312 46.757812 Z M 177.152344 46.757812 C 177.152344 46.203125 177.597656 45.753906 178.152344 45.753906 L 189.636719 45.753906 C 190.191406 45.753906 190.640625 46.203125 190.640625 46.757812 C 190.640625 47.3125 190.191406 47.761719 189.636719 47.761719 L 178.152344 47.761719 C 177.597656 47.761719 177.152344 47.3125 177.152344 46.757812 Z M 177.152344 46.757812 " fill-opacity="1" fill-rule="nonzero"/></g><g transform="matrix(1, 0, 0, 1, 106, 288)"><g clip-path="url(#1e6b05df48)"><g fill="#7f7f7f" fill-opacity="1"><g transform="translate(0.190327, 50.592345)"><g><path d="M 2.625 -35.296875 L 2.625 -39.546875 L 32.28125 -39.546875 L 32.28125 -35.296875 L 19.84375 -35.296875 L 19.84375 0 L 15.0625 0 L 15.0625 -35.296875 Z M 2.625 -35.296875 "/></g></g></g><g fill="#7f7f7f" fill-opacity="1"><g transform="translate(31.085402, 50.592345)"><g><path d="M 21.15625 -19.078125 L 21.15625 -14.828125 L 3.859375 -14.828125 L 3.859375 -19.078125 Z M 21.15625 -19.078125 "/></g></g></g><g fill="#7f7f7f" fill-opacity="1"><g transform="translate(56.110663, 50.592345)"><g><path d="M 26.421875 -29.65625 C 26.179688 -31.613281 25.238281 -33.132812 23.59375 -34.21875 C 21.945312 -35.300781 19.925781 -35.84375 17.53125 -35.84375 C 14.90625 -35.84375 12.796875 -35.21875 11.203125 -33.96875 C 9.609375 -32.726562 8.8125 -31.160156 8.8125 -29.265625 C 8.8125 -27.859375 9.242188 -26.71875 10.109375 -25.84375 C 10.972656 -24.976562 12 -24.300781 13.1875 -23.8125 C 14.382812 -23.332031 15.472656 -22.960938 16.453125 -22.703125 L 20.46875 -21.625 C 21.5 -21.351562 22.644531 -20.976562 23.90625 -20.5 C 25.175781 -20.03125 26.394531 -19.382812 27.5625 -18.5625 C 28.726562 -17.75 29.691406 -16.703125 30.453125 -15.421875 C 31.210938 -14.148438 31.59375 -12.585938 31.59375 -10.734375 C 31.59375 -8.597656 31.035156 -6.664062 29.921875 -4.9375 C 28.804688 -3.21875 27.179688 -1.847656 25.046875 -0.828125 C 22.921875 0.179688 20.335938 0.6875 17.296875 0.6875 C 13.046875 0.6875 9.671875 -0.3125 7.171875 -2.3125 C 4.679688 -4.320312 3.320312 -6.945312 3.09375 -10.1875 L 8.03125 -10.1875 C 8.15625 -8.695312 8.660156 -7.46875 9.546875 -6.5 C 10.429688 -5.53125 11.550781 -4.804688 12.90625 -4.328125 C 14.269531 -3.859375 15.734375 -3.625 17.296875 -3.625 C 19.128906 -3.625 20.769531 -3.921875 22.21875 -4.515625 C 23.675781 -5.117188 24.828125 -5.957031 25.671875 -7.03125 C 26.523438 -8.113281 26.953125 -9.375 26.953125 -10.8125 C 26.953125 -12.125 26.582031 -13.191406 25.84375 -14.015625 C 25.113281 -14.835938 24.148438 -15.503906 22.953125 -16.015625 C 21.753906 -16.535156 20.460938 -16.988281 19.078125 -17.375 L 14.21875 -18.765625 C 11.125 -19.648438 8.675781 -20.914062 6.875 -22.5625 C 5.070312 -24.21875 4.171875 -26.378906 4.171875 -29.046875 C 4.171875 -31.253906 4.769531 -33.1875 5.96875 -34.84375 C 7.175781 -36.5 8.800781 -37.785156 10.84375 -38.703125 C 12.882812 -39.628906 15.164062 -40.09375 17.6875 -40.09375 C 20.238281 -40.09375 22.503906 -39.632812 24.484375 -38.71875 C 26.460938 -37.8125 28.035156 -36.570312 29.203125 -35 C 30.367188 -33.4375 30.984375 -31.65625 31.046875 -29.65625 Z M 26.421875 -29.65625 "/></g></g></g><g fill="#7f7f7f" fill-opacity="1"><g transform="translate(90.790727, 50.592345)"><g><path d="M 38.15625 -19.765625 C 38.15625 -16.066406 37.550781 -12.800781 36.34375 -9.96875 C 35.132812 -7.144531 33.476562 -4.867188 31.375 -3.140625 L 36.53125 3.703125 L 31.28125 3.703125 L 27.828125 -0.921875 C 25.640625 0.0546875 23.265625 0.546875 20.703125 0.546875 C 17.328125 0.546875 14.328125 -0.273438 11.703125 -1.921875 C 9.078125 -3.578125 7.007812 -5.921875 5.5 -8.953125 C 4 -11.992188 3.25 -15.597656 3.25 -19.765625 C 3.25 -23.941406 4 -27.546875 5.5 -30.578125 C 7.007812 -33.617188 9.078125 -35.960938 11.703125 -37.609375 C 14.328125 -39.265625 17.328125 -40.09375 20.703125 -40.09375 C 24.078125 -40.09375 27.078125 -39.265625 29.703125 -37.609375 C 32.328125 -35.960938 34.390625 -33.617188 35.890625 -30.578125 C 37.398438 -27.546875 38.15625 -23.941406 38.15625 -19.765625 Z M 19.15625 -12.359375 L 24.40625 -12.359375 L 28.609375 -6.8125 C 30.117188 -8.125 31.3125 -9.863281 32.1875 -12.03125 C 33.070312 -14.207031 33.515625 -16.785156 33.515625 -19.765625 C 33.515625 -23.191406 32.945312 -26.082031 31.8125 -28.4375 C 30.675781 -30.789062 29.140625 -32.570312 27.203125 -33.78125 C 25.265625 -35 23.097656 -35.609375 20.703125 -35.609375 C 18.304688 -35.609375 16.140625 -35 14.203125 -33.78125 C 12.265625 -32.570312 10.722656 -30.789062 9.578125 -28.4375 C 8.441406 -26.082031 7.875 -23.191406 7.875 -19.765625 C 7.875 -16.347656 8.441406 -13.457031 9.578125 -11.09375 C 10.722656 -8.738281 12.265625 -6.957031 14.203125 -5.75 C 16.140625 -4.539062 18.304688 -3.9375 20.703125 -3.9375 C 22.234375 -3.9375 23.675781 -4.179688 25.03125 -4.671875 Z M 19.15625 -12.359375 "/></g></g></g><g fill="#7f7f7f" fill-opacity="1"><g transform="translate(132.190541, 50.592345)"><g><path d="M 4.78125 0 L 4.78125 -39.546875 L 9.578125 -39.546875 L 9.578125 -4.25 L 27.953125 -4.25 L 27.953125 0 Z M 4.78125 0 "/></g></g></g></g></g></svg>